<svg width="112" height="112" fill="none" xmlns="http://www.w3.org/2000/svg"><path fill-rule="evenodd" clip-rule="evenodd" d="M55.243.368a56.585 56.585 0 0156.586 46.966 20.03 20.03 0 00-11.317 1.585 70.061 70.061 0 0111.317.792c.228 2.56.228 5.135 0 7.696a55.905 55.905 0 01-93.986 39.317A55.907 55.907 0 01.129 58.99s6.677-1.698 7.922-2.15a16.75 16.75 0 01-8.035-1.358 57.604 57.604 0 017.356-29.538 57.836 57.836 0 018.94-3.169c-6.224.68-7.582.906-7.243 0A50.814 50.814 0 0155.243.142v.226z" fill="url(#paint0_linear_70_5840)"/><path fill-rule="evenodd" clip-rule="evenodd" d="M55.243.935a54.209 54.209 0 0154.436 45.948 24.674 24.674 0 00-11.318 2.49 93.49 93.49 0 0112.11 0v5.545a54.324 54.324 0 01-89.362 38A54.322 54.322 0 012.392 58.54l10.525-3.169c-3.782.632-7.66.36-11.317-.792V53.9a54.435 54.435 0 016.45-28.066l12.45-3.961-10.3 1.244A49.795 49.795 0 0155.47.482l-.227.453z" fill="url(#paint1_radial_70_5840)"/><path style="mix-blend-mode:multiply" opacity=".6" fill-rule="evenodd" clip-rule="evenodd" d="M2.166 45.072a113.167 113.167 0 0013.467-4.187 122.782 122.782 0 0121.842-6.111 367.233 367.233 0 0158.17-11.318h4.867a34.035 34.035 0 00-2.49-3.168 96.867 96.867 0 00-15.165 0c-20.371 1.81-44.25 7.13-66.092 10.638L5.448 32.963a51.605 51.605 0 00-2.83 11.317l-.452.792z" fill="url(#paint2_radial_70_5840)"/><path style="mix-blend-mode:multiply" opacity=".6" fill-rule="evenodd" clip-rule="evenodd" d="M35.325 63.294A181.962 181.962 0 0015.52 71.67a30.554 30.554 0 00-8.149 5.658 56.587 56.587 0 006.904 10.525l5.206 2.377c5.206 2.263 10.638 4.414 15.504 6.903 5.057 2.637 9.9 5.664 14.486 9.054 1.922.113 3.85.113 5.772 0a60.104 60.104 0 009.167-.679l-10.638-7.922a194.304 194.304 0 01-17.655-13.58 8.146 8.146 0 01-1.584-2.717 7.355 7.355 0 010-3.055c.05-.99.32-1.957.792-2.83.175-.892.44-1.764.792-2.603a66.883 66.883 0 0116.75-9.958 248.984 248.984 0 0128.518-10.639 58.737 58.737 0 0116.07-2.829 24.67 24.67 0 0111.318-2.49c0-2.037-.679-4.074-1.132-5.998a52.173 52.173 0 00-14.599 0A407.416 407.416 0 0034.42 63.52l.906-.226z" fill="url(#paint3_radial_70_5840)"/><path d="M106.623 72.911h-1.245a22.644 22.644 0 00-3.961 0c-.883.13-1.73.438-2.49.906a13.81 13.81 0 00-2.15 1.358 15.505 15.505 0 00-2.037 1.81 12.445 12.445 0 00-1.584 2.037 14.022 14.022 0 00-1.132 2.264 11.31 11.31 0 000 2.716 6.677 6.677 0 000 2.49 5.205 5.205 0 001.471 2.037 9.388 9.388 0 001.698 1.245l1.584-1.698a11.313 11.313 0 01-2.603-1.471 4.187 4.187 0 01-1.132-2.83 7.582 7.582 0 011.132-3.508 11.316 11.316 0 019.733-5.092 3.168 3.168 0 011.471 0 27.74 27.74 0 001.132-2.716l.113.452zm3.282-13.58H109a66.772 66.772 0 00-37.46 11.317c-4.3 2.942-6.338 5.545-6.677 8.148a9.166 9.166 0 002.49 8.035 100.39 100.39 0 0014.033 14.26l-3.848 1.811a111.728 111.728 0 01-13.694-13.694 13.467 13.467 0 01-5.093-10.751c.906-6.225 13.807-12.789 20.71-15.618a74.921 74.921 0 0130.218-6.338v2.943l.226-.113zm0-7.583a104.797 104.797 0 00-55.34 13.015 49.909 49.909 0 00-14.713 9.62 5.772 5.772 0 000 8.487 138.411 138.411 0 0015.957 13.015c4.753 3.395 8.375 6.564 11.996 9.28l-3.282.679-10.638-7.922a194.31 194.31 0 01-17.768-13.92 8.148 8.148 0 01-1.584-2.716 7.355 7.355 0 010-3.056c.05-.99.321-1.956.792-2.829a13.53 13.53 0 01.792-2.603 66.886 66.886 0 0116.75-9.959 248.959 248.959 0 0128.519-10.638 62.58 62.58 0 0128.179-2.264 9.779 9.779 0 000 1.811h.34zm-1.585-11.317a52.171 52.171 0 00-14.599 0A407.415 407.415 0 0035.1 63.065a181.962 181.962 0 00-19.805 8.375 28.745 28.745 0 00-8.149 5.659c0-1.359-1.244-2.603-1.697-3.962a143.84 143.84 0 0127.5-12.675c7.357-2.829 14.713-5.885 22.635-8.827a158.436 158.436 0 0138.591-12.562c4.747-.338 9.512-.338 14.26 0v1.471l-.114-.113zM14.049 87.397l5.206 2.377c5.206 2.263 10.638 4.413 15.504 6.903 5.057 2.637 9.9 5.664 14.486 9.054a48.56 48.56 0 01-9.167-1.698L31.59 99.62c-2.829-1.472-5.771-2.717-8.827-4.075a53.99 53.99 0 01-8.714-8.148zm91.669-54.209a86.808 86.808 0 00-18.447 1.471 217.285 217.285 0 00-35.197 11.317C35.779 51.748 19.142 57.294 2.505 62.273a22.635 22.635 0 010-2.716c17.09-4.98 33.952-10.638 50.588-16.636a188.54 188.54 0 0133.951-10.072 91.785 91.785 0 0117.994-1.019l.68 1.358zM2.166 45.071a113.167 113.167 0 0013.467-4.187 122.8 122.8 0 0121.842-6.111 367.24 367.24 0 0158.17-11.318h4.867l1.471 2.037a59.233 59.233 0 00-6.338 0 151.086 151.086 0 00-36.893 7.696c-7.13 1.924-13.92 3.735-21.163 5.093a120.068 120.068 0 00-21.616 5.998 106.377 106.377 0 01-14.373 4.3 16.185 16.185 0 010-3.282l.566-.226zm4.3-15.278l10.073-1.924c21.842-3.395 45.268-7.243 66.205-9.054 4.41-.226 8.83-.226 13.24 0 .738.7 1.42 1.457 2.038 2.264a96.867 96.867 0 00-15.165 0c-20.37 1.81-44.25 7.13-66.092 10.638L5.448 33.754c0-1.245.905-2.377 1.471-3.621l-.453-.34zm5.659-9.393c5.659-.792 11.317-1.358 16.863-1.585 5.545-.226 13.92-.679 20.936-1.584l13.015-1.81a210.282 210.282 0 0126.821-2.604l1.924 1.472c-20.823 0-38.591 6.79-62.583 7.13-5.885 0-12.676 1.018-19.013 1.81a22.628 22.628 0 012.037-2.83zm5.998-6.564c13.6-.213 27.171-1.31 40.629-3.282 7.922-1.132 15.843-2.15 23.652-2.603a38.133 38.133 0 013.622 2.15 240.031 240.031 0 00-27.048 2.377 291.061 291.061 0 01-44.25 4.074 26.83 26.83 0 013.169-3.056l.226.34zm9.846-7.017c7.809 0 15.844-1.245 24.219-2.49a303.962 303.962 0 0114.146-2.037l5.432 1.472C57.28 5.234 42.907 7.95 28.422 9.196h-4.98L27.97 6.48v.34zm60.207 89.406a26.482 26.482 0 01-6.79-5.66 11.316 11.316 0 01-3.395-8.94v-.905a21.503 21.503 0 017.582-8.375 34.97 34.97 0 0122.634-6.677v1.358a31.688 31.688 0 00-9.846 1.019 36.782 36.782 0 00-11.317 5.998c-5.885 4.414-9.393 8.488-3.96 15.165a26.596 26.596 0 006.45 5.658l-1.698 1.359h.34z" fill="#B7805C" opacity=".5"/><path style="mix-blend-mode:screen" opacity=".35" fill-rule="evenodd" clip-rule="evenodd" d="M36.117 5.802a.905.905 0 010-.905c0-1.019 3.395-2.15 6.225-3.056a53.418 53.418 0 00-14.486 4.98l9.845-.68h-1.358l-.226-.339zm-2.603 2.83H23.102a50.356 50.356 0 00-5.432 4.3h14.6a15.397 15.397 0 01-3.283 0c-5.319 0 0-3.169 2.264-3.735l2.263-.679v.113zm-3.735 7.695H14.614a42.573 42.573 0 00-2.829 3.508c5.659-.792 11.317-1.358 16.863-1.584h1.471-2.15c-1.472 0 0-1.471.566-1.81h1.244v-.114zm-9.732 5.659L7.824 26.399l-1.697 3.395 10.072-1.924h1.245c-1.924 0-3.961-1.47-2.037-2.942a26.143 26.143 0 0112.901-3.395c-2.603 0-5.432 0-8.261.566v-.113zm-4.414 9.506L4.316 33.416a51.608 51.608 0 00-2.83 11.317 113.184 113.184 0 0013.468-4.187l1.81-.68c-3.62.793-8.148 1.359-9.166 0-1.019-1.358 0-6.563 2.83-7.469a40.653 40.653 0 014.866-1.584l.34.679zm-2.15 13.58a114.054 114.054 0 01-11.317 3.282 36.783 36.783 0 000 6.112v.679a24.333 24.333 0 0011.317.792l3.848-1.132c-4.414 0-11.317.906-12.223-1.697-.905-2.603 4.3-5.659 9.28-8.035h-.905zm0 13.355L2.166 61.822a48.325 48.325 0 003.168 11.317 64.906 64.906 0 0111.318-5.885c-1.768.49-3.598.72-5.433.68a3.848 3.848 0 01-2.376-6.452 15.279 15.279 0 015.092-3.282l-.452.227zm1.697 13.24a30.556 30.556 0 00-8.148 5.66 56.588 56.588 0 006.903 10.524l5.206 2.377 9.167 3.96a76.74 76.74 0 01-10.072-6.337c-2.943-2.829-6.903-9.393-4.753-13.467a15.391 15.391 0 013.169-3.508l-1.472.792z" fill="url(#paint4_radial_70_5840)"/><path style="mix-blend-mode:screen" fill-rule="evenodd" clip-rule="evenodd" d="M6.466 78.458c11.317 20.71 25.35 27.501 49.682 29.878A43.573 43.573 0 016.466 78.458z" fill="url(#paint5_radial_70_5840)"/><path style="mix-blend-mode:screen" fill-rule="evenodd" clip-rule="evenodd" d="M11.559 23.117A49.909 49.909 0 0155.243 2.859c3.809.148 7.597.64 11.317 1.471l4.527 2.264a51.038 51.038 0 018.035 1.923 52.057 52.057 0 0122.634 20.258v1.019c0 .34 0 0-.792 0h-.339a59.608 59.608 0 00-6.338 0 47.76 47.76 0 00-9.846 1.131 230.641 230.641 0 00-29.877 11.318 171.452 171.452 0 0132.48-9.394 83.189 83.189 0 0116.976-1.471 51.494 51.494 0 015.206 15.391A54.208 54.208 0 0054.79.822 49.795 49.795 0 009.522 23.456l2.037-.34z" fill="url(#paint6_radial_70_5840)"/><path fill-rule="evenodd" clip-rule="evenodd" d="M94.966 78.458a45.947 45.947 0 01-38.93 21.276 46.4 46.4 0 01-39.498-21.276 45.268 45.268 0 0078.428 0z" fill="#CA9E67" opacity=".65"/><path opacity=".75" fill-rule="evenodd" clip-rule="evenodd" d="M101.983 47.901A46.968 46.968 0 0055.922 7.5 45.269 45.269 0 009.635 53.673a17.537 17.537 0 000 2.49h2.83l-2.83.905a46.287 46.287 0 0092.461-3.168v-4.301a25.814 25.814 0 00-4.188 0 22.644 22.644 0 014.075-1.471V47.9z" fill="url(#paint7_linear_70_5840)"/><path fill-rule="evenodd" clip-rule="evenodd" d="M9.635 55.03A45.27 45.27 0 0155.922 9.762a47.08 47.08 0 0145.269 38.026A46.968 46.968 0 0055.13 7.385 45.268 45.268 0 008.843 53.56v1.358l.792.113z" fill="#683C11" opacity=".5"/><path fill-rule="evenodd" clip-rule="evenodd" d="M56.18 29.083c-10.423.764-16.77 2.866-21.934 7.265-5.076 4.322-7.509 10.918-7.224 19.58.245 7.422 4.076 16.353 8.217 19.154.566.383 6.512 2.998 6.224 2.737-.036-.032-.717-.547-1.514-1.144-1.637-1.224-4.03-3.61-5.027-5.014-1.998-2.81-2.906-5.447-2.906-8.444 0-2.62.683-4.935 2.278-7.719 3.842-6.707 9.668-10.223 16.439-9.923 2.376.106 3.674.452 6.027 1.608 2.154 1.059 2.71 1.236 3.885 1.237 1.201.001 2.003-.222 3.651-1.015 5.375-2.589 8.391-6.206 11.67-13.997.418-.992.946-2.176 1.175-2.63.229-.454.416-.86.416-.902 0-.042-.394-.076-.876-.076s-1.77-.096-2.862-.213a177.056 177.056 0 00-3.943-.37c-2.603-.207-11.51-.295-13.696-.134zm23.265 7.676c-.012 2.251-.928 7.33-1.534 8.505-.463.896-1.335 2.068-2.075 2.785-.897.871-1.064.69-.614-.67 1.007-3.042 1.65-6.76 1.58-9.142l-.042-1.409-1.084 3.432c-.595 1.887-1.16 3.535-1.254 3.663-.19.26-.18.082.163-2.864.106-.913.177-1.676.158-1.696-.02-.02-.25.533-.512 1.227-.535 1.416-1.215 2.706-2.87 5.443l-1.132 1.87-1.517.513c-.835.282-1.974.763-2.532 1.069-.558.306-1.21.66-1.45.79-.575.308-2.478.393-3.75.167-1.177-.21-3.637-1.019-5.657-1.861-5.33-2.222-10.531-1.796-14.517 1.19-3.157 2.363-5.974 6.888-6.8 10.92-.331 1.615-.236 4.51.196 5.994 1.173 4.029 4.402 7.855 9.534 11.297l.888.596 2.373.154c1.304.085 4.622.192 7.372.24 6.565.113 8.405-.095 8.405-.947 0-.723-2.436-1.09-6.34-.953-3.292.115-3.304.107-2.01-1.337 1.905-2.126 3.222-4.494 3.81-6.847.854-3.424.021-6.568-2.54-9.586-1.603-1.888-3.478-3.038-5.6-3.436-1.073-.2-1.095-.212-.29-.142 1.659.143 2.813.63 4.378 1.85 1.858 1.448 3.52 3.822 4.256 6.076.289.887.332 1.335.353 3.68.02 2.316.066 2.8.34 3.64.506 1.541 1.306 2.28 2.472 2.28.37 0 1.305-.292 2.568-.8 2.71-1.09 4.01-1.416 5.705-1.428 1.367-.01 1.388-.005 2.78.692l1.403.703 1.022-.309c1.15-.348 2.186-1.172 2.186-1.738 0-.843-.97-2.028-2.512-3.072-1.23-.832-1.912-1.085-3.213-1.192-1.666-.137-2.596-.432-3.265-1.034-.727-.654-.966-1.376-.744-2.252.154-.61.84-1.985.992-1.985.04 0 .461.35.935.777 2.043 1.84 5.177 2.571 7.513 1.75 2.899-1.018 3.67-4.795 2.139-10.464-.555-2.052-.566-2.785-.077-4.982.851-3.819 1.155-7.412.848-10.031-.208-1.782-.431-2.355-.438-1.126zm-2.954 17.094c.453.215.92.823.92 1.197 0 .285-.679.605-1.073.507-.94-.235-1.603-1.429-.991-1.784.355-.206.57-.19 1.144.08zm-27.883 2.025a.56.56 0 01-.362 0c-.1-.04-.019-.072.18-.072.2 0 .282.032.182.072z" fill="#FFD7B7"/><defs><radialGradient id="paint1_radial_70_5840" cx="0" cy="0" r="1" gradientUnits="userSpaceOnUse" gradientTransform="translate(23.329 6.594) scale(115.208)"><stop stop-color="#F59547"/><stop offset="1" stop-color="#A14C1F"/></radialGradient><radialGradient id="paint2_radial_70_5840" cx="0" cy="0" r="1" gradientUnits="userSpaceOnUse" gradientTransform="translate(30.12 49.6) scale(117.359)"><stop stop-color="#CFA04D"/><stop offset="1" stop-color="#fff"/></radialGradient><radialGradient id="paint3_radial_70_5840" cx="0" cy="0" r="1" gradientUnits="userSpaceOnUse" gradientTransform="translate(48.566 109.355) scale(144.633)"><stop stop-color="#CFA04D"/><stop offset="1" stop-color="#fff"/></radialGradient><radialGradient id="paint4_radial_70_5840" cx="0" cy="0" r="1" gradientUnits="userSpaceOnUse" gradientTransform="translate(83.649 69.744) scale(100.157)"><stop offset=".35"/><stop offset="1" stop-color="#00B875"/></radialGradient><radialGradient id="paint5_radial_70_5840" cx="0" cy="0" r="1" gradientUnits="userSpaceOnUse" gradientTransform="translate(21.97 104.148) scale(43.4577)"><stop stop-color="#B0670B"/><stop offset="1"/></radialGradient><radialGradient id="paint6_radial_70_5840" cx="0" cy="0" r="1" gradientUnits="userSpaceOnUse" gradientTransform="translate(24.008 9.31) scale(85.3311)"><stop stop-color="#A48A7B"/><stop offset="1" stop-color="#945534"/></radialGradient><linearGradient id="paint0_linear_70_5840" x1="55.922" y1="110.937" x2="55.922" y2=".255" gradientUnits="userSpaceOnUse"><stop stop-color="#692705"/><stop offset="1" stop-color="#823B00"/></linearGradient><linearGradient id="paint7_linear_70_5840" x1="55.922" y1="99.507" x2="55.922" y2="7.386" gradientUnits="userSpaceOnUse"><stop stop-color="#823B00"/><stop offset="1" stop-color="#692705"/></linearGradient></defs></svg>