<svg width="80" height="41" fill="none" xmlns="http://www.w3.org/2000/svg"><path fill-rule="evenodd" clip-rule="evenodd" d="M0 7.836l3.587 23.033 14.146.78H5.642l1.26 9.131 41.477-7.662v5.322l3.482 1.184S70.172 36.086 80 24.405v-3.907S66.362 3.364 49.229 1.393l-.857 1.581v6.777L3.698 4.875 0 7.835z" fill="url(#paint0_linear_11_383)"/><path fill-rule="evenodd" clip-rule="evenodd" d="M3.698 4.91l4.207-1.936 40.467 4.862v1.887L3.698 4.91zm45.531-3.517L51.492 0s18.534 5.523 27.944 17.252l.536 3.246S65.833 3.482 49.23 1.393z" fill="#FF8B3E"/><path fill-rule="evenodd" clip-rule="evenodd" d="M0 7.836l10.88-1.184 10.886.202L3.698 4.91 0 7.836z" fill="#6B2805"/><path fill-rule="evenodd" clip-rule="evenodd" d="M5.642 31.663l.717-.64 11.374.626-12.091.014z" fill="#FF8B3E"/><path style="mix-blend-mode:multiply" opacity=".2" fill-rule="evenodd" clip-rule="evenodd" d="M3.176 28.243S10.893 13.338 26.732 7.39l4.144.446S13.972 15.212 3.587 30.869l-.411-2.626z" fill="url(#paint1_linear_11_383)"/><path style="mix-blend-mode:multiply" opacity=".2" fill-rule="evenodd" clip-rule="evenodd" d="M2.229 22.163S7.599 11.06 17.349 6.77l-6.442-.118s-7.062 1.79-9.855 7.752l1.177 7.759z" fill="url(#paint2_linear_11_383)"/><path style="mix-blend-mode:multiply" opacity=".2" fill-rule="evenodd" clip-rule="evenodd" d="M13.735 39.52s8.358-21.724 21.327-31.232l1.114.119S19.99 21.724 14.501 39.373l-.766.146z" fill="url(#paint3_linear_11_383)"/><path style="mix-blend-mode:multiply" opacity=".2" fill-rule="evenodd" clip-rule="evenodd" d="M17.023 37.611s4.408-13.303 13.282-20.477c8.873-7.174 19.502-10.037 5.871 18.27l-.843.097s11.346-21.453 4.089-22.407c-7.258-.954-18.826 14.223-22.4 24.517z" fill="url(#paint4_linear_11_383)"/><path style="mix-blend-mode:multiply" opacity=".2" fill-rule="evenodd" clip-rule="evenodd" d="M39.986 34.679s6.547-20.08 15.532-31.956l.752.251S45.265 16.382 41.135 34.463l-1.149.216z" fill="url(#paint5_linear_11_383)"/><path style="mix-blend-mode:multiply" opacity=".2" fill-rule="evenodd" clip-rule="evenodd" d="M48.365 38.454s11.84-16.675 23.13-26.175l-5.042-3.99s-11.409 9.96-18.109 24.843l.021 5.322z" fill="url(#paint6_linear_11_383)"/><path style="mix-blend-mode:multiply" opacity=".2" fill-rule="evenodd" clip-rule="evenodd" d="M56.27 38.489S67.351 21.612 77.06 17.37l1.686 1.762s-14.153 5.892-20.895 18.861l-1.58.495z" fill="url(#paint7_linear_11_383)"/><path opacity=".4" fill-rule="evenodd" clip-rule="evenodd" d="M51.409 27.163S59.217 16.57 62.44 12.258a46.144 46.144 0 00-11.03 14.905zM7.376 25.812s6.777-8.323 22.1-17.308c0 0-9.842 3.539-22.1 17.308zm53.63 7.23s6.965-8.289 14.933-12.537c0 .007-9.138 4.464-14.933 12.537z" fill="#D9772F"/><path fill-rule="evenodd" clip-rule="evenodd" d="M48.372 2.974l5.238-.683-4.381-.898-.857 1.581zM62.441 6.01l4.18 4.256 8.26 4.987-7.376-6.763-5.064-2.48z" fill="#E06834"/><path fill-rule="evenodd" clip-rule="evenodd" d="M2.66 24.935L1.624 10.859l-.6-1.825.502-.746 6.457-.898 1.19.446L13.736 6.7l-2.856-.048L0 7.836l2.66 17.099z" fill="#6B2805"/><path fill-rule="evenodd" clip-rule="evenodd" d="M74.88 15.253l3.518 4.479 1.233 2.605.341 2.082v-3.907l-2.876-3.768-2.361-1.581.146.09z" fill="#982F34"/><path fill-rule="evenodd" clip-rule="evenodd" d="M17.733 31.649l10.796-.627 12.627.32-11.304.32-12.12-.013z" fill="#B95C26"/><path fill-rule="evenodd" clip-rule="evenodd" d="M48.365 38.454l7.905.035-4.436 1.149-3.469-1.184z" fill="#801B34"/><path fill-rule="evenodd" clip-rule="evenodd" d="M6.888 40.78l3.24-1.734 23.248-3.148L6.888 40.78z" fill="#AD5322"/><path fill-rule="evenodd" clip-rule="evenodd" d="M3.587 30.869l2.055-.745 10.28 1.428-12.335-.683z" fill="#BC5F27"/><path fill-rule="evenodd" clip-rule="evenodd" d="M5.677 27.93l2.82-.746 2.048-.404-2.43 1.15H5.676z" fill="#B35925"/><path fill-rule="evenodd" clip-rule="evenodd" d="M56.27 34.679l5.523-1.637h-2.765l-2.758 1.637z" fill="#801B34"/><path fill-rule="evenodd" clip-rule="evenodd" d="M56.27 34.679l3.134-.592 2.39-1.045-2.766.522-2.758 1.115z" fill="#B25929"/><path fill-rule="evenodd" clip-rule="evenodd" d="M.836 13.617l3.461 1.546-3.057.627-.404-2.173z" fill="#964219"/><path fill-rule="evenodd" clip-rule="evenodd" d="M28.382 7.57l-.69 2.696 1.75-2.584 1.434-.766-2.494.655z" fill="#892334"/><path fill-rule="evenodd" clip-rule="evenodd" d="M27.693 10.266l3.183-2.43v-.92l-1.435.766-1.748 2.584z" fill="#DC634F"/><path fill-rule="evenodd" clip-rule="evenodd" d="M48.365 33.133l1.31-1.644 1.734-2.18-3.044 5.37v-1.547z" fill="#801B34"/><path fill-rule="evenodd" clip-rule="evenodd" d="M48.365 34.679l1.748-1.637 1.296-3.733-3.044 5.37z" fill="#DC634F"/><path fill-rule="evenodd" clip-rule="evenodd" d="M24.461 23.367l6.415-3.635-2.048 1.818-4.367 1.817z" fill="#801B34"/><path fill-rule="evenodd" clip-rule="evenodd" d="M24.956 23.166l3.238-1.003 2.236-2.041-2.124 1.525-3.35 1.519z" fill="#DC634F"/><path fill-rule="evenodd" clip-rule="evenodd" d="M33.996 8.177l3.309 1.546 7.139-.425-10.448-1.121z" fill="#E06834"/><defs><linearGradient id="paint0_linear_11_383" x1="39.986" y1="40.78" x2="39.986" y2="1.393" gradientUnits="userSpaceOnUse"><stop stop-color="#EE8F44"/><stop offset="1" stop-color="#A85222"/></linearGradient><linearGradient id="paint1_linear_11_383" x1="3.176" y1="19.133" x2="30.876" y2="19.133" gradientUnits="userSpaceOnUse"><stop stop-color="#C77CBD"/><stop offset="1" stop-color="#974577"/></linearGradient><linearGradient id="paint2_linear_11_383" x1="1.024" y1="14.404" x2="17.322" y2="14.404" gradientUnits="userSpaceOnUse"><stop stop-color="#C77CBD"/><stop offset="1" stop-color="#974577"/></linearGradient><linearGradient id="paint3_linear_11_383" x1="13.735" y1="23.904" x2="36.176" y2="23.904" gradientUnits="userSpaceOnUse"><stop stop-color="#C77CBD"/><stop offset="1" stop-color="#974577"/></linearGradient><linearGradient id="paint4_linear_11_383" x1="17.023" y1="24.935" x2="42.688" y2="24.935" gradientUnits="userSpaceOnUse"><stop stop-color="#C77CBD"/><stop offset="1" stop-color="#974577"/></linearGradient><linearGradient id="paint5_linear_11_383" x1="39.986" y1="18.701" x2="56.27" y2="18.701" gradientUnits="userSpaceOnUse"><stop stop-color="#C77CBD"/><stop offset="1" stop-color="#974577"/></linearGradient><linearGradient id="paint6_linear_11_383" x1="48.365" y1="23.368" x2="71.496" y2="23.368" gradientUnits="userSpaceOnUse"><stop stop-color="#CD6C2E"/><stop offset="1" stop-color="#964319"/></linearGradient><linearGradient id="paint7_linear_11_383" x1="56.27" y1="27.93" x2="78.746" y2="27.93" gradientUnits="userSpaceOnUse"><stop stop-color="#C77CBD"/><stop offset="1" stop-color="#974577"/></linearGradient></defs></svg>