<svg width="80" height="41" fill="none" xmlns="http://www.w3.org/2000/svg"><path fill-rule="evenodd" clip-rule="evenodd" d="M80 7.836l-3.587 23.033-14.146.78h12.091l-1.26 9.131-41.477-7.662v5.322l-3.482 1.184S9.828 36.086 0 24.405v-3.907S13.637 3.364 30.771 1.393l.857 1.581v6.777l44.674-4.876L80 7.835z" fill="url(#paint0_linear_11_433)"/><path fill-rule="evenodd" clip-rule="evenodd" d="M76.302 4.91l-4.207-1.936-40.467 4.862v1.887L76.302 4.91zM30.771 1.393L28.508 0S9.974 5.523.564 17.252l-.536 3.246S14.167 3.482 30.77 1.393z" fill="#FF8B3E"/><path fill-rule="evenodd" clip-rule="evenodd" d="M80 7.836L69.12 6.652l-10.886.202L76.302 4.91 80 7.836z" fill="#6B2805"/><path fill-rule="evenodd" clip-rule="evenodd" d="M74.358 31.663l-.717-.64-11.374.626 12.091.014z" fill="#FF8B3E"/><path style="mix-blend-mode:multiply" opacity=".2" fill-rule="evenodd" clip-rule="evenodd" d="M76.824 28.243S69.107 13.338 53.268 7.39l-4.144.446s16.904 7.376 27.289 23.033l.411-2.626z" fill="url(#paint1_linear_11_433)"/><path style="mix-blend-mode:multiply" opacity=".2" fill-rule="evenodd" clip-rule="evenodd" d="M77.771 22.163S72.401 11.06 62.651 6.77l6.442-.118s7.062 1.79 9.855 7.752l-1.177 7.759z" fill="url(#paint2_linear_11_433)"/><path style="mix-blend-mode:multiply" opacity=".2" fill-rule="evenodd" clip-rule="evenodd" d="M66.265 39.52S57.907 17.795 44.938 8.287l-1.114.119S60.01 21.724 65.499 39.373l.766.146z" fill="url(#paint3_linear_11_433)"/><path style="mix-blend-mode:multiply" opacity=".2" fill-rule="evenodd" clip-rule="evenodd" d="M62.977 37.611S58.57 24.308 49.695 17.134c-8.873-7.174-19.502-10.037-5.871 18.27l.843.097S33.32 14.048 40.578 13.094c7.258-.954 18.826 14.223 22.4 24.517z" fill="url(#paint4_linear_11_433)"/><path style="mix-blend-mode:multiply" opacity=".2" fill-rule="evenodd" clip-rule="evenodd" d="M40.014 34.679s-6.547-20.08-15.532-31.956l-.752.251s11.004 13.408 15.135 31.489l1.149.216z" fill="url(#paint5_linear_11_433)"/><path style="mix-blend-mode:multiply" opacity=".2" fill-rule="evenodd" clip-rule="evenodd" d="M31.635 38.454s-11.84-16.675-23.13-26.175l5.042-3.99s11.409 9.96 18.109 24.843l-.021 5.322z" fill="url(#paint6_linear_11_433)"/><path style="mix-blend-mode:multiply" opacity=".2" fill-rule="evenodd" clip-rule="evenodd" d="M23.73 38.489S12.648 21.612 2.94 17.37l-1.686 1.762s14.153 5.892 20.895 18.861l1.58.495z" fill="url(#paint7_linear_11_433)"/><path opacity=".4" fill-rule="evenodd" clip-rule="evenodd" d="M28.591 27.163S20.783 16.57 17.56 12.258a46.144 46.144 0 0111.03 14.905zm44.033-1.351s-6.777-8.323-22.1-17.308c0 0 9.842 3.539 22.1 17.308zm-53.63 7.23S12.029 24.753 4.06 20.505c0 .007 9.138 4.464 14.933 12.537z" fill="#D9772F"/><path fill-rule="evenodd" clip-rule="evenodd" d="M31.628 2.974l-5.238-.683 4.381-.898.857 1.581zM17.559 6.01l-4.18 4.256-8.26 4.987 7.376-6.763 5.064-2.48z" fill="#E06834"/><path fill-rule="evenodd" clip-rule="evenodd" d="M77.34 24.935l1.037-14.076.6-1.825-.502-.746-6.457-.898-1.19.446L66.264 6.7l2.856-.048L80 7.836l-2.66 17.099z" fill="#6B2805"/><path fill-rule="evenodd" clip-rule="evenodd" d="M5.12 15.253l-3.518 4.479-1.233 2.605-.341 2.082v-3.907l2.876-3.768 2.361-1.581-.146.09z" fill="#982F34"/><path fill-rule="evenodd" clip-rule="evenodd" d="M62.267 31.649l-10.796-.627-12.627.32 11.304.32 12.119-.013z" fill="#B95C26"/><path fill-rule="evenodd" clip-rule="evenodd" d="M31.635 38.454l-7.905.035 4.436 1.149 3.469-1.184z" fill="#801B34"/><path fill-rule="evenodd" clip-rule="evenodd" d="M73.112 40.78l-3.24-1.734-23.248-3.148 26.488 4.882z" fill="#AD5322"/><path fill-rule="evenodd" clip-rule="evenodd" d="M76.413 30.869l-2.055-.745-10.28 1.428 12.335-.683z" fill="#BC5F27"/><path fill-rule="evenodd" clip-rule="evenodd" d="M74.323 27.93l-2.82-.746-2.048-.404 2.43 1.15h2.438z" fill="#B35925"/><path fill-rule="evenodd" clip-rule="evenodd" d="M23.73 34.679l-5.523-1.637h2.765l2.758 1.637z" fill="#801B34"/><path fill-rule="evenodd" clip-rule="evenodd" d="M23.73 34.679l-3.134-.592-2.39-1.045 2.766.522 2.758 1.115z" fill="#B25929"/><path fill-rule="evenodd" clip-rule="evenodd" d="M79.164 13.617l-3.461 1.546 3.057.627.404-2.173z" fill="#964219"/><path fill-rule="evenodd" clip-rule="evenodd" d="M51.618 7.57l.69 2.696-1.75-2.584-1.434-.766 2.494.655z" fill="#892334"/><path fill-rule="evenodd" clip-rule="evenodd" d="M52.307 10.266l-3.183-2.43v-.92l1.435.766 1.748 2.584z" fill="#DC634F"/><path fill-rule="evenodd" clip-rule="evenodd" d="M31.635 33.133l-1.31-1.644-1.734-2.18 3.044 5.37v-1.547z" fill="#801B34"/><path fill-rule="evenodd" clip-rule="evenodd" d="M31.635 34.679l-1.748-1.637-1.296-3.733 3.044 5.37z" fill="#DC634F"/><path fill-rule="evenodd" clip-rule="evenodd" d="M55.539 23.367l-6.415-3.635 2.048 1.818 4.367 1.817z" fill="#801B34"/><path fill-rule="evenodd" clip-rule="evenodd" d="M55.044 23.166l-3.238-1.003-2.236-2.041 2.124 1.525 3.35 1.519z" fill="#DC634F"/><path fill-rule="evenodd" clip-rule="evenodd" d="M46.004 8.177l-3.309 1.546-7.139-.425 10.448-1.121z" fill="#E06834"/><defs><linearGradient id="paint0_linear_11_433" x1="40.014" y1="40.78" x2="40.014" y2="1.393" gradientUnits="userSpaceOnUse"><stop stop-color="#EE8F44"/><stop offset="1" stop-color="#A85222"/></linearGradient><linearGradient id="paint1_linear_11_433" x1="76.824" y1="19.133" x2="49.124" y2="19.133" gradientUnits="userSpaceOnUse"><stop stop-color="#C77CBD"/><stop offset="1" stop-color="#974577"/></linearGradient><linearGradient id="paint2_linear_11_433" x1="78.976" y1="14.404" x2="62.678" y2="14.404" gradientUnits="userSpaceOnUse"><stop stop-color="#C77CBD"/><stop offset="1" stop-color="#974577"/></linearGradient><linearGradient id="paint3_linear_11_433" x1="66.265" y1="23.904" x2="43.824" y2="23.904" gradientUnits="userSpaceOnUse"><stop stop-color="#C77CBD"/><stop offset="1" stop-color="#974577"/></linearGradient><linearGradient id="paint4_linear_11_433" x1="62.977" y1="24.935" x2="37.312" y2="24.935" gradientUnits="userSpaceOnUse"><stop stop-color="#C77CBD"/><stop offset="1" stop-color="#974577"/></linearGradient><linearGradient id="paint5_linear_11_433" x1="40.014" y1="18.701" x2="23.73" y2="18.701" gradientUnits="userSpaceOnUse"><stop stop-color="#C77CBD"/><stop offset="1" stop-color="#974577"/></linearGradient><linearGradient id="paint6_linear_11_433" x1="31.635" y1="23.368" x2="8.504" y2="23.368" gradientUnits="userSpaceOnUse"><stop stop-color="#CD6C2E"/><stop offset="1" stop-color="#964319"/></linearGradient><linearGradient id="paint7_linear_11_433" x1="23.73" y1="27.93" x2="1.254" y2="27.93" gradientUnits="userSpaceOnUse"><stop stop-color="#C77CBD"/><stop offset="1" stop-color="#974577"/></linearGradient></defs></svg>