<svg width="112" height="112" viewBox="0 0 112 112" fill="none" xmlns="http://www.w3.org/2000/svg">
<path fill-rule="evenodd" clip-rule="evenodd" d="M55.2433 0.36826C68.7238 0.172263 81.8313 4.79587 92.2054 13.4064C102.579 22.0169 109.538 34.0484 111.829 47.3343C107.983 46.7524 104.05 47.3029 100.512 48.9187C104.299 48.8764 108.084 49.1413 111.829 49.7109C112.057 52.271 112.057 54.8464 111.829 57.4066C111.418 71.8148 105.458 85.5076 95.1925 95.6266C84.9274 105.746 71.1506 111.509 56.7379 111.713C42.3253 111.918 28.3905 106.548 17.8425 96.7238C7.2945 86.9 0.948387 73.3818 0.128854 58.9909C0.128854 58.9909 6.80592 57.2934 8.0508 56.8407C5.30146 57.0564 2.5414 56.5899 0.0156584 55.4827C-0.22516 45.1553 2.31561 34.9532 7.3718 25.945C10.2602 24.6457 13.2504 23.5859 16.3123 22.7762C10.0879 23.4552 8.72988 23.6816 9.06939 22.7762C14.057 15.2375 20.9653 9.16574 29.0818 5.18705C37.1984 1.20836 46.2293 -0.533197 55.2433 0.141955V0.36826Z" fill="url(#paint0_linear_70_5840)"/>
<path fill-rule="evenodd" clip-rule="evenodd" d="M55.2432 0.93503C68.3359 0.727651 81.0611 5.26634 91.0674 13.7124C101.074 22.1584 107.685 33.9409 109.679 46.8825C105.762 46.8022 101.883 47.6557 98.3614 49.3723C102.394 49.1106 106.439 49.1106 110.471 49.3723C110.471 51.183 110.471 52.9937 110.471 54.9177C109.621 68.3922 103.784 81.0673 94.0975 90.4724C84.411 99.8775 71.5691 105.338 58.0755 105.79C44.5818 106.243 31.4033 101.654 21.1089 92.9181C10.8145 84.1826 4.14203 71.9265 2.39222 58.5391L12.9171 55.3703C9.13505 56.0017 5.25728 55.7303 1.60002 54.5782V53.8992C1.19172 44.1342 3.41995 34.4394 8.05078 25.8327L20.4997 21.8717L10.2011 23.1166C15.0348 15.6422 21.7838 9.60014 29.7453 5.61938C37.7068 1.63863 46.5898 -0.135295 55.4695 0.482334L55.2432 0.93503Z" fill="url(#paint1_radial_70_5840)"/>
<path style="mix-blend-mode:multiply" opacity="0.6" fill-rule="evenodd" clip-rule="evenodd" d="M2.16577 45.0723C6.73759 43.9579 11.2355 42.5593 15.6332 40.8849C22.7097 38.1783 30.0216 36.1325 37.4752 34.7737C56.5287 29.4404 75.982 25.6557 95.6452 23.4565H100.512C99.7451 22.3519 98.9137 21.2938 98.0218 20.2878C92.9746 19.8915 87.904 19.8915 82.8568 20.2878C62.486 22.0985 38.6069 27.4176 16.7649 30.9259L5.44775 32.963C4.07995 36.6163 3.13079 40.4129 2.61847 44.2801L2.16577 45.0723Z" fill="url(#paint2_radial_70_5840)"/>
<path style="mix-blend-mode:multiply" opacity="0.6" fill-rule="evenodd" clip-rule="evenodd" d="M35.3248 63.2942C28.5638 65.6929 21.9506 68.4893 15.5198 71.6688C12.5136 73.0985 9.76121 75.0099 7.37146 77.3274C9.27404 81.0815 11.5895 84.6116 14.2749 87.8523L19.4808 90.2289C24.6867 92.4923 30.1189 94.6426 34.9853 97.1323C40.0417 99.7694 44.885 102.796 49.4712 106.186C51.3934 106.299 53.3207 106.299 55.2429 106.186C58.3114 106.194 61.3759 105.967 64.4098 105.507L53.7716 97.585C47.6319 93.3995 41.7374 88.8651 36.117 84.0044C35.4175 83.2105 34.8793 82.288 34.5326 81.2883C34.3187 80.281 34.3187 79.2401 34.5326 78.2328C34.5833 77.2425 34.8539 76.2761 35.3248 75.4035C35.5003 74.5113 35.7657 73.6392 36.117 72.8005C41.184 68.6809 46.827 65.3257 52.8663 62.8415C62.1469 58.7171 71.671 55.1644 81.3854 52.2033C86.5845 50.5171 91.9934 49.5649 97.4557 49.3741C100.977 47.6574 104.856 46.804 108.773 46.8843C108.773 44.8472 108.094 42.8101 107.641 40.8862C102.799 40.202 97.8844 40.202 93.0421 40.8862C72.9476 46.9105 53.3484 54.4777 34.4194 63.5205L35.3248 63.2942Z" fill="url(#paint3_radial_70_5840)"/>
<g style="mix-blend-mode:multiply" opacity="0.5">
<path d="M106.623 72.9112H105.378C104.06 72.7955 102.735 72.7955 101.417 72.9112C100.534 73.0406 99.6871 73.3486 98.9273 73.8165C98.1703 74.2021 97.4505 74.6567 96.777 75.1746C96.0462 75.7172 95.3645 76.3232 94.74 76.9854C94.1427 77.6077 93.6117 78.2904 93.1556 79.0225C92.7109 79.7413 92.3322 80.4988 92.0239 81.2859C91.9148 82.1879 91.9148 83.0999 92.0239 84.0019C91.8678 84.8245 91.8678 85.6691 92.0239 86.4917C92.3406 87.2807 92.8457 87.9801 93.4951 88.5288C94.0125 89.0061 94.5819 89.4237 95.1926 89.7737L96.777 88.0761C95.8481 87.703 94.9728 87.2083 94.1741 86.6049C93.4549 85.8374 93.0509 84.8274 93.0424 83.7756C93.1253 82.5309 93.514 81.3259 94.1741 80.2674C95.2305 78.6619 96.6783 77.3519 98.3811 76.4609C100.084 75.5699 101.986 75.1273 103.907 75.1746C104.39 75.0592 104.894 75.0592 105.378 75.1746C105.803 74.29 106.181 73.3834 106.51 72.4585L106.623 72.9112ZM109.905 59.3306H109C95.663 59.2773 82.6159 63.219 71.5398 70.6477C67.2393 73.5902 65.2023 76.1931 64.8628 78.7961C64.6062 80.2369 64.6984 81.7182 65.1316 83.1162C65.5647 84.5141 66.3263 85.7879 67.3525 86.8312C71.5438 92.0399 76.2448 96.8168 81.3858 101.091L77.538 102.902C72.5856 98.7421 68.0037 94.1602 63.8442 89.2078C62.2287 87.9254 60.9294 86.2891 60.0464 84.425C59.1634 82.5609 58.7204 80.519 58.7515 78.4566C59.6569 72.2322 72.5584 65.6683 79.4619 62.839C88.9849 58.6515 99.2756 56.4931 109.679 56.5013C109.679 57.5199 109.679 58.5384 109.679 59.4438L109.905 59.3306ZM109.905 51.7482C90.6111 50.9044 71.4595 55.4084 54.5641 64.7629C49.1296 67.0737 44.1483 70.3307 39.8519 74.3824C39.2655 74.9229 38.7975 75.5791 38.4774 76.3095C38.1572 77.0399 37.9919 77.8288 37.9919 78.6263C37.9919 79.4238 38.1572 80.2127 38.4774 80.9432C38.7975 81.6736 39.2655 82.3297 39.8519 82.8702C44.8405 87.5987 50.1742 91.949 55.809 95.885C60.5622 99.2801 64.1838 102.449 67.8052 105.165L64.5233 105.844L53.8851 97.922C47.6978 93.6302 41.7652 88.9823 36.1173 84.0019C35.4178 83.208 34.8797 82.2855 34.5329 81.2859C34.319 80.2785 34.319 79.2376 34.5329 78.2303C34.5836 77.2401 34.8542 76.2736 35.3251 75.401C35.5006 74.5088 35.766 73.6367 36.1173 72.798C41.1843 68.6785 46.8273 65.3232 52.8666 62.839C62.1472 58.7146 71.6713 55.1619 81.3858 52.2009C90.4834 49.3069 100.122 48.5327 109.565 49.9375C109.509 50.5397 109.509 51.1459 109.565 51.7482H109.905ZM108.32 40.431C103.478 39.7468 98.5637 39.7468 93.7214 40.431C73.6269 46.4553 54.0278 54.0225 35.0988 63.0653C28.3378 65.464 21.7246 68.2604 15.2938 71.4399C12.2703 72.8396 9.51312 74.7543 7.14546 77.0985C7.14546 75.7404 5.90056 74.4956 5.44788 73.1375C14.1433 67.9566 23.3612 63.7081 32.9485 60.4624C40.3046 57.6331 47.6607 54.5774 55.5827 51.635C67.8548 45.8106 80.825 41.5886 94.1741 39.073C98.9212 38.7346 103.686 38.7346 108.434 39.073C108.434 39.073 108.434 40.0916 108.434 40.5442L108.32 40.431ZM14.0489 87.3971L19.2548 89.7737C24.4607 92.0371 29.8928 94.1874 34.7592 96.6771C39.8157 99.3142 44.659 102.341 49.2452 105.731C46.1422 105.46 43.0723 104.892 40.0782 104.033L31.5904 99.6196C28.7611 98.1484 25.8187 96.9035 22.7631 95.5455C19.5662 93.1596 16.6437 90.4268 14.0489 87.3971ZM105.718 33.1881C99.5338 33.0198 93.3496 33.513 87.2706 34.6593C75.2383 37.4249 63.4637 41.211 52.0745 45.9764C35.7778 51.7481 19.1416 57.2936 2.5054 62.2731C2.45103 61.3685 2.45103 60.4616 2.5054 59.557C19.5943 54.5775 36.4568 48.9189 53.093 42.9208C64.069 38.5056 75.4362 35.1334 87.0443 32.8486C92.9944 31.9196 99.0215 31.5784 105.038 31.83L105.718 33.1881ZM2.1659 45.0711C6.73772 43.9567 11.2356 42.5581 15.6333 40.8837C22.7099 38.1772 30.0217 36.1314 37.4754 34.7725C56.5288 29.4393 75.9821 25.6546 95.6453 23.4554H100.512L101.983 25.4924C99.8719 25.3793 97.7564 25.3793 95.6453 25.4924C83.0744 26.5077 70.68 29.0931 58.7515 33.1881C51.6217 35.112 44.8314 36.9227 37.5885 38.2808C30.2118 39.6012 22.9751 41.6094 15.9728 44.2789C11.2891 46.0489 6.48616 47.4859 1.60001 48.5794C1.4888 47.4882 1.4888 46.3886 1.60001 45.2974L2.1659 45.0711ZM6.46638 29.7929L16.5386 27.869C38.3807 24.4739 61.8072 20.6261 82.7438 18.8154C87.1546 18.5893 91.5741 18.5893 95.9848 18.8154C96.7223 19.5152 97.4034 20.272 98.0219 21.0788C92.9747 20.6825 87.9042 20.6825 82.8569 21.0788C62.4861 22.8895 38.607 28.2086 16.765 31.7169L5.44788 33.754C5.44788 32.5091 6.35322 31.3774 6.91907 30.1325L6.46638 29.7929ZM12.1249 20.3998C17.7835 19.6076 23.4421 19.0417 28.9875 18.8154C34.5329 18.589 42.9076 18.1363 49.9242 17.2309L62.9389 15.4202C71.8146 13.98 80.7734 13.1105 89.7604 12.8172L91.6844 14.2885C70.8609 14.2885 53.0929 21.0788 29.1006 21.4183C23.2157 21.4183 16.4254 22.4369 10.0879 23.2291C10.6931 22.235 11.3742 21.2891 12.1249 20.3998ZM18.1231 13.8358C31.7227 13.6225 45.294 12.5262 58.7515 10.5539C66.6735 9.42214 74.5954 8.40356 82.4043 7.95088C83.6501 8.60038 84.8592 9.31825 86.0258 10.1012C76.9722 10.3824 67.9417 11.1758 58.9778 12.4777C44.3532 14.9614 29.5602 16.3234 14.7279 16.5519C15.6987 15.4483 16.7585 14.4263 17.8967 13.4963L18.1231 13.8358ZM27.9689 6.81918C35.7777 6.81918 43.8129 5.57428 52.1876 4.3294C56.9408 3.5372 61.5808 2.85817 66.334 2.29232L71.7662 3.7636C57.2803 5.23482 42.9075 7.95088 28.4216 9.19577H23.4421L27.9689 6.47968V6.81918ZM88.176 96.2245C85.6116 94.732 83.3162 92.8192 81.3858 90.5659C80.2015 89.4138 79.2839 88.0164 78.6974 86.4719C78.1108 84.9273 77.8696 83.2731 77.9906 81.6254V80.72C79.7265 77.3025 82.3444 74.4111 85.5731 72.3453C92.1163 67.5643 100.117 65.2041 108.207 65.6683V67.0263C104.892 66.8479 101.57 67.1917 98.3614 68.0448C94.2673 69.3669 90.4369 71.397 87.0443 74.0429C81.1594 78.4566 77.6511 82.5307 83.0833 89.2078C84.9131 91.4307 87.0917 93.3418 89.5341 94.8664L87.8365 96.2245H88.176Z" fill="#B7805C"/>
</g>
<path style="mix-blend-mode:screen" opacity="0.35" fill-rule="evenodd" clip-rule="evenodd" d="M36.1171 5.80212C36.0376 5.66449 35.9957 5.50835 35.9957 5.34942C35.9957 5.1905 36.0376 5.03436 36.1171 4.89673C36.1171 3.87819 39.5122 2.74651 42.3415 1.84114C37.2987 2.79644 32.4199 4.47347 27.8555 6.82062L37.7014 6.14162H36.3434L36.1171 5.80212ZM33.5141 8.6314H28.0819H23.1023C21.195 9.9385 19.38 11.3754 17.6702 12.9319C22.7629 12.9319 27.5161 12.9319 32.2693 12.9319C31.1784 13.0488 30.0782 13.0488 28.9873 12.9319C23.6683 12.9319 28.9873 9.76306 31.2507 9.1972L33.5141 8.5182V8.6314ZM29.7795 16.327C24.9131 16.327 19.9336 16.327 14.6145 16.327C13.6101 17.4457 12.6657 18.6167 11.7852 19.8353C17.4438 19.0431 23.1023 18.4773 28.6477 18.2509H30.119H27.9687C26.4975 18.2509 27.9687 16.7797 28.5346 16.4402H29.7795V16.327ZM20.0468 21.9856L7.82425 26.3993L6.12667 29.7944L16.1989 27.8705H17.4438C15.5199 27.8705 13.4828 26.3992 15.4067 24.928C19.3412 22.6996 23.7865 21.5298 28.3082 21.5329C25.7053 21.5329 22.876 21.5329 20.0468 22.0987V21.9856ZM15.6331 31.4919L4.31597 33.4158C2.94817 37.0692 1.99902 40.8658 1.48669 44.733C6.05851 43.6185 10.5563 42.2201 14.954 40.5457L16.7648 39.8666C13.1433 40.6588 8.61649 41.2246 7.59795 39.8666C6.57941 38.5085 7.59795 33.3027 10.4272 32.3973C12.0144 31.7675 13.6398 31.2383 15.2936 30.8129L15.6331 31.4919ZM13.4828 45.0725C9.7695 46.3608 5.99209 47.4561 2.16569 48.3544C1.99617 50.388 1.99617 52.4321 2.16569 54.4657V55.1448C5.82295 56.2969 9.70072 56.5683 13.4828 55.937L17.3306 54.8053C12.9169 54.8053 6.01354 55.7106 5.10817 53.1077C4.2028 50.5048 9.40867 47.4491 14.3882 45.0725H13.4828ZM13.4828 58.4268L2.16569 61.8218C2.7576 65.7091 3.82172 69.5096 5.33447 73.139C8.90465 70.8108 12.6953 68.8397 16.6516 67.2541C14.8837 67.7445 13.0536 67.9732 11.2194 67.9331C10.511 67.8526 9.83884 67.5769 9.27801 67.1367C8.71717 66.6965 8.28969 66.1091 8.04322 65.4401C7.79674 64.7711 7.741 64.0468 7.88219 63.3479C8.02337 62.6491 8.3559 62.0032 8.84275 61.4823C10.3042 60.0594 12.0359 58.9434 13.9355 58.2004L13.4828 58.4268ZM15.1804 71.6678C12.1742 73.0975 9.4218 75.0089 7.03206 77.3263C8.93464 81.0804 11.2501 84.6106 13.9355 87.8513L19.1414 90.2278L28.3082 94.1888C24.7918 92.3402 21.4243 90.2213 18.236 87.8513C15.2935 85.022 11.3326 78.458 13.4828 74.3838C14.3521 73.0582 15.421 71.8748 16.6516 70.8756L15.1804 71.6678Z" fill="url(#paint4_radial_70_5840)"/>
<path style="mix-blend-mode:screen" fill-rule="evenodd" clip-rule="evenodd" d="M6.46606 78.4583C17.7832 99.1687 31.8164 105.959 56.1482 108.336C45.6439 110.317 34.7778 108.368 25.6171 102.859C16.4564 97.35 9.64039 88.6657 6.46606 78.4583Z" fill="url(#paint5_radial_70_5840)"/>
<path style="mix-blend-mode:screen" fill-rule="evenodd" clip-rule="evenodd" d="M11.5588 23.1166C16.5405 16.3295 23.1583 10.9129 30.7962 7.37095C38.4341 3.82903 46.8439 2.27689 55.2429 2.85894C59.052 3.00677 62.8398 3.49916 66.56 4.33013L71.0868 6.59361C73.8128 7.01672 76.5001 7.66011 79.122 8.5175C88.5128 12.8698 96.3931 19.9227 101.756 28.7752C101.756 28.7752 101.756 29.4541 101.756 29.7937C101.756 30.1332 101.756 29.7937 100.964 29.7937H100.625C98.5135 29.6813 96.398 29.6813 94.2869 29.7937C90.9746 29.8284 87.6749 30.2078 84.441 30.9254C74.2323 34.0027 64.2493 37.7841 54.5638 42.2426C65.0546 38.049 75.9342 34.9026 87.044 32.8493C92.6373 31.7791 98.3257 31.2861 104.02 31.378C106.559 36.2006 108.316 41.3957 109.226 46.7693C107.232 33.8277 100.621 22.0452 90.6144 13.5992C80.6081 5.15316 67.8829 0.614476 54.7902 0.821854C45.9104 0.204225 37.0274 1.97815 29.0659 5.9589C21.1044 9.93966 14.3555 15.9817 9.52173 23.4561L11.5588 23.1166Z" fill="url(#paint6_radial_70_5840)"/>
<g style="mix-blend-mode:screen" opacity="0.65">
<path fill-rule="evenodd" clip-rule="evenodd" d="M94.9661 78.4583C90.8007 85.0029 85.0461 90.3862 78.2387 94.1065C71.4314 97.8268 63.7929 99.763 56.0353 99.7345C48.19 99.8166 40.4519 97.908 33.5446 94.1871C26.6373 90.4663 20.7862 85.0547 16.5385 78.4583C20.5102 85.3448 26.2255 91.0639 33.1093 95.0403C39.993 99.0167 47.8026 101.11 55.7523 101.11C63.702 101.11 71.5116 99.0167 78.3954 95.0403C85.2791 91.0639 90.9943 85.3448 94.9661 78.4583Z" fill="#CA9E67"/>
</g>
<path opacity="0.75" fill-rule="evenodd" clip-rule="evenodd" d="M101.983 47.9014C100.412 36.7688 94.8997 26.5691 86.4476 19.1553C77.9956 11.7416 67.1644 7.60576 55.922 7.4993C49.8152 7.36061 43.7434 8.45922 38.0724 10.7291C32.4014 12.999 27.2483 16.3932 22.9237 20.7072C18.5991 25.0213 15.1923 30.1659 12.9086 35.8314C10.6248 41.4968 9.51131 47.5659 9.63505 53.6731C9.57608 54.502 9.57608 55.334 9.63505 56.1629H12.4643L9.63505 57.0683C10.4728 69.0292 15.9193 80.1984 24.8277 88.2238C33.736 96.2493 45.4111 100.505 57.3943 100.094C69.3776 99.6833 80.7338 94.6386 89.0719 86.0221C97.4099 77.4056 102.079 65.8897 102.096 53.8995C102.096 52.4283 102.096 51.0701 102.096 49.5989C100.702 49.4855 99.302 49.4855 97.9085 49.5989C99.2164 48.9794 100.581 48.4868 101.983 48.1277V47.9014Z" fill="url(#paint7_linear_70_5840)"/>
<g style="mix-blend-mode:multiply" opacity="0.5">
<path fill-rule="evenodd" clip-rule="evenodd" d="M9.63507 55.0304C9.63354 48.999 10.8373 43.0281 13.1756 37.4684C15.514 31.9087 18.9399 26.8724 23.2519 22.6553C27.564 18.4381 32.6753 15.1252 38.2856 12.911C43.8959 10.6969 49.8922 9.62625 55.9221 9.76196C66.6762 9.9753 77.0331 13.8647 85.2693 20.7831C93.5054 27.7015 99.1241 37.2316 101.191 47.7875C99.6198 36.6549 94.1076 26.4551 85.6555 19.0414C77.2034 11.6276 66.3722 7.49183 55.1299 7.38537C49.023 7.24668 42.9512 8.34537 37.2802 10.6153C31.6092 12.8852 26.4562 16.2794 22.1315 20.5934C17.8069 24.9074 14.4002 30.052 12.1164 35.7175C9.8326 41.3829 8.71904 47.4521 8.84279 53.5592V54.9172L9.63507 55.0304Z" fill="#683C11"/>
</g>
<path fill-rule="evenodd" clip-rule="evenodd" d="M56.1803 29.0826C45.757 29.8471 39.4109 31.9491 34.2456 36.3479C29.1704 40.6698 26.737 47.2661 27.0225 55.9271C27.2671 63.3502 31.0977 72.2806 35.2385 75.0816C35.805 75.4649 41.7507 78.0795 41.4629 77.8188C41.4271 77.7865 40.7457 77.272 39.9486 76.6755C38.3118 75.4509 35.9192 73.0645 34.9217 71.6614C32.9237 68.8511 32.0162 66.2136 32.0162 63.2168C32.0162 60.5967 32.6992 58.2822 34.294 55.4984C38.1364 48.7913 43.9616 45.2747 50.7325 45.5751C53.1094 45.6807 54.4074 46.027 56.76 47.1831C58.9138 48.2416 59.4709 48.419 60.645 48.42C61.8464 48.4212 62.6477 48.1983 64.2961 47.4046C69.6712 44.8163 72.6874 41.1989 75.966 33.4084C76.3835 32.416 76.9123 31.2323 77.141 30.7782C77.3697 30.3239 77.5568 29.9178 77.5568 29.876C77.5568 29.834 77.1628 29.7996 76.681 29.7996C76.1993 29.7996 74.9113 29.7038 73.8187 29.5867C72.7261 29.4696 70.9518 29.3036 69.8757 29.2177C67.273 29.0102 58.3659 28.9224 56.1803 29.0826ZM79.4452 36.7591C79.4332 39.0103 78.5169 44.0896 77.911 45.2638C77.4483 46.1603 76.5758 47.332 75.8364 48.0495C74.9389 48.9205 74.7715 48.7382 75.2216 47.3795C76.2294 44.3373 76.8719 40.6196 76.8013 38.2368L76.7597 36.8285L75.6765 40.2596C75.0807 42.1465 74.5165 43.7953 74.4225 43.9232C74.2322 44.1826 74.2424 44.0047 74.5851 41.059C74.6913 40.146 74.7623 39.3829 74.7429 39.3634C74.7235 39.3438 74.4931 39.8959 74.2308 40.5904C73.696 42.0065 73.016 43.2958 71.3606 46.0332L70.2295 47.9037L68.712 48.4161C67.8775 48.698 66.7381 49.1789 66.1801 49.4846C65.6222 49.7905 64.97 50.1457 64.7309 50.2743C64.1555 50.5834 62.2525 50.6684 60.9793 50.4418C59.8025 50.2323 57.3434 49.4234 55.3226 48.5808C49.9935 46.3591 44.7917 46.7854 40.8055 49.7703C37.649 52.134 34.8315 56.6588 34.0059 60.6907C33.675 62.306 33.7697 65.2018 34.2015 66.6852C35.3747 70.7136 38.6044 74.5403 43.7358 77.9818L44.6243 78.5778L46.9966 78.7318C48.3012 78.8165 51.6187 78.9245 54.3687 78.9717C60.9338 79.0846 62.7744 78.8773 62.7744 78.0252C62.7744 77.3016 60.3379 76.9352 56.4339 77.0718C53.1416 77.1868 53.1303 77.1793 54.424 75.7349C56.3289 73.6087 57.6459 71.2414 58.2336 68.8878C59.0883 65.4641 58.2552 62.3197 55.6937 59.3023C54.0909 57.4141 52.2158 56.2635 50.0934 55.8661C49.0209 55.6651 48.9992 55.6544 49.8035 55.7237C51.4626 55.8668 52.6168 56.3547 54.1825 57.5747C56.04 59.0224 57.7028 61.3964 58.4376 63.6499C58.727 64.5374 58.7701 64.9854 58.7908 67.3308C58.8111 69.6464 58.8565 70.1299 59.1315 70.9691C59.637 72.5114 60.4366 73.2492 61.6029 73.2492C61.9732 73.2492 62.9076 72.9584 64.171 72.45C66.8804 71.3595 68.1817 71.0337 69.876 71.0216C71.243 71.0119 71.2637 71.017 72.6561 71.7145L74.059 72.4172L75.0807 72.108C76.2307 71.7601 77.267 70.9364 77.267 70.3703C77.267 69.5271 76.2977 68.3417 74.7554 67.2985C73.5248 66.4662 72.8431 66.2131 71.5424 66.1059C69.8765 65.9686 68.9458 65.6738 68.2766 65.0717C67.55 64.4178 67.3113 63.6956 67.5326 62.8204C67.6869 62.2096 68.3739 60.835 68.5247 60.835C68.5652 60.835 68.9862 61.1847 69.4604 61.6121C71.5027 63.4529 74.6373 64.1834 76.9725 63.3628C79.8717 62.3439 80.6437 58.5672 79.1116 52.8983C78.5568 50.8458 78.5456 50.1127 79.0352 47.9156C79.8863 44.0974 80.1901 40.5039 79.8834 37.8846C79.6747 36.1031 79.4519 35.5303 79.4452 36.7591ZM76.4906 53.8535C76.9439 54.0677 77.4119 54.6757 77.4119 55.0505C77.4119 55.3346 76.732 55.6552 76.3383 55.5567C75.3983 55.3217 74.7348 54.1284 75.3467 53.7734C75.7016 53.5674 75.9174 53.5826 76.4906 53.8535ZM48.6079 55.8783C48.5083 55.9185 48.3453 55.9185 48.2456 55.8783C48.146 55.8383 48.2275 55.8056 48.4267 55.8056C48.626 55.8056 48.7076 55.8383 48.6079 55.8783Z" fill="#FFD7B7"/>
<defs>
<linearGradient id="paint0_linear_70_5840" x1="55.9223" y1="110.937" x2="55.9223" y2="0.255124" gradientUnits="userSpaceOnUse">
<stop stop-color="#692705"/>
<stop offset="1" stop-color="#823B00"/>
</linearGradient>
<radialGradient id="paint1_radial_70_5840" cx="0" cy="0" r="1" gradientUnits="userSpaceOnUse" gradientTransform="translate(23.3289 6.59358) scale(115.208)">
<stop stop-color="#F59547"/>
<stop offset="1" stop-color="#A14C1F"/>
</radialGradient>
<radialGradient id="paint2_radial_70_5840" cx="0" cy="0" r="1" gradientUnits="userSpaceOnUse" gradientTransform="translate(30.1191 49.5991) scale(117.359)">
<stop stop-color="#CFA04D"/>
<stop offset="1" stop-color="white"/>
</radialGradient>
<radialGradient id="paint3_radial_70_5840" cx="0" cy="0" r="1" gradientUnits="userSpaceOnUse" gradientTransform="translate(48.5658 109.355) scale(144.633)">
<stop stop-color="#CFA04D"/>
<stop offset="1" stop-color="white"/>
</radialGradient>
<radialGradient id="paint4_radial_70_5840" cx="0" cy="0" r="1" gradientUnits="userSpaceOnUse" gradientTransform="translate(83.649 69.7438) scale(100.157)">
<stop offset="0.35"/>
<stop offset="1" stop-color="#00B875"/>
</radialGradient>
<radialGradient id="paint5_radial_70_5840" cx="0" cy="0" r="1" gradientUnits="userSpaceOnUse" gradientTransform="translate(21.9705 104.148) scale(43.4577)">
<stop stop-color="#B0670B"/>
<stop offset="1"/>
</radialGradient>
<radialGradient id="paint6_radial_70_5840" cx="0" cy="0" r="1" gradientUnits="userSpaceOnUse" gradientTransform="translate(24.0076 9.30969) scale(85.3311)">
<stop stop-color="#A48A7B"/>
<stop offset="1" stop-color="#945534"/>
</radialGradient>
<linearGradient id="paint7_linear_70_5840" x1="55.9221" y1="99.5075" x2="55.9221" y2="7.38613" gradientUnits="userSpaceOnUse">
<stop stop-color="#823B00"/>
<stop offset="1" stop-color="#692705"/>
</linearGradient>
</defs>
</svg>
