<svg width="80" height="41" viewBox="0 0 80 41" fill="none" xmlns="http://www.w3.org/2000/svg">
<path fill-rule="evenodd" clip-rule="evenodd" d="M80 7.83557L76.413 30.8688L62.2671 31.6489H74.3583L73.0977 40.78L31.6211 33.1185V38.4398L28.1386 39.6238C28.1386 39.6238 9.82761 36.0856 0 24.4053V20.4979C0 20.4979 13.6375 3.36404 30.7714 1.39294L31.6281 2.97399V9.75094L76.3016 4.87544L80 7.83557Z" fill="url(#paint0_linear_11_433)"/>
<path fill-rule="evenodd" clip-rule="evenodd" d="M76.3015 4.91039L72.0946 2.97412L31.628 7.8357V9.72321L76.3015 4.91039Z" fill="#FF8B3E"/>
<path fill-rule="evenodd" clip-rule="evenodd" d="M30.7714 1.393L28.5077 0C28.5077 0 9.97385 5.52324 0.564138 17.2523L0.0278416 20.498C0.0278416 20.498 14.1668 3.4825 30.7714 1.393Z" fill="#FF8B3E"/>
<path fill-rule="evenodd" clip-rule="evenodd" d="M80 7.83571L69.1207 6.65165L58.2344 6.85364L76.3016 4.9104L80 7.83571Z" fill="#6B2805"/>
<path fill-rule="evenodd" clip-rule="evenodd" d="M74.3584 31.6629L73.641 31.0221L62.2672 31.6489L74.3584 31.6629Z" fill="#FF8B3E"/>
<path style="mix-blend-mode:multiply" opacity="0.2" fill-rule="evenodd" clip-rule="evenodd" d="M76.824 28.2431C76.824 28.2431 69.1067 13.338 53.2683 7.38989L49.1242 7.83566C49.1242 7.83566 66.0282 15.2116 76.413 30.8689L76.824 28.2431Z" fill="url(#paint1_linear_11_433)"/>
<path style="mix-blend-mode:multiply" opacity="0.2" fill-rule="evenodd" clip-rule="evenodd" d="M77.7712 22.1627C77.7712 22.1627 72.4011 11.0605 62.6501 6.77003L69.0928 6.65161C69.0928 6.65161 76.1553 8.44162 78.9482 14.4037L77.7712 22.1627Z" fill="url(#paint2_linear_11_433)"/>
<path style="mix-blend-mode:multiply" opacity="0.2" fill-rule="evenodd" clip-rule="evenodd" d="M66.265 39.5194C66.265 39.5194 57.907 17.7956 44.9382 8.28833L43.8238 8.40674C43.8238 8.40674 60.0104 21.7238 65.4989 39.3731L66.265 39.5194Z" fill="url(#paint3_linear_11_433)"/>
<path style="mix-blend-mode:multiply" opacity="0.2" fill-rule="evenodd" clip-rule="evenodd" d="M62.9775 37.611C62.9775 37.611 58.5686 24.3079 49.6952 17.134C40.8218 9.96 30.1932 7.09737 43.8237 35.4031L44.6665 35.5007C44.6665 35.5007 33.3205 14.0484 40.578 13.0942C47.8356 12.14 59.4044 27.3168 62.9775 37.611Z" fill="url(#paint4_linear_11_433)"/>
<path style="mix-blend-mode:multiply" opacity="0.2" fill-rule="evenodd" clip-rule="evenodd" d="M40.0139 34.6788C40.0139 34.6788 33.4668 14.5987 24.482 2.72339L23.7297 2.97412C23.7297 2.97412 34.7345 16.3818 38.8647 34.4629L40.0139 34.6788Z" fill="url(#paint5_linear_11_433)"/>
<path style="mix-blend-mode:multiply" opacity="0.2" fill-rule="evenodd" clip-rule="evenodd" d="M31.635 38.4537C31.635 38.4537 19.7945 21.7795 8.50423 12.2793L13.5469 8.28833C13.5469 8.28833 24.9556 18.2483 31.6559 33.1325L31.635 38.4537Z" fill="url(#paint6_linear_11_433)"/>
<path style="mix-blend-mode:multiply" opacity="0.2" fill-rule="evenodd" clip-rule="evenodd" d="M23.7298 38.4886C23.7298 38.4886 12.6485 21.6124 2.93927 17.3707L1.25375 19.1329C1.25375 19.1329 15.4066 25.0253 22.1488 37.9941L23.7298 38.4886Z" fill="url(#paint7_linear_11_433)"/>
<path opacity="0.4" fill-rule="evenodd" clip-rule="evenodd" d="M28.5913 27.1635C28.5913 27.1635 20.7835 16.5698 17.5588 12.2584C22.207 16.429 25.9603 21.4998 28.5913 27.1635Z" fill="#D9772F"/>
<path opacity="0.4" fill-rule="evenodd" clip-rule="evenodd" d="M72.6241 25.8123C72.6241 25.8123 65.8472 17.4891 50.5242 8.50427C50.5242 8.50427 60.3657 12.0425 72.6241 25.8123Z" fill="#D9772F"/>
<path opacity="0.4" fill-rule="evenodd" clip-rule="evenodd" d="M18.9936 33.0419C18.9936 33.0419 12.0286 24.7535 4.06063 20.5049C4.06063 20.5118 13.1987 24.9694 18.9936 33.0419Z" fill="#D9772F"/>
<path fill-rule="evenodd" clip-rule="evenodd" d="M31.6281 2.97399L26.3904 2.29144L30.7714 1.39294L31.6281 2.97399Z" fill="#E06834"/>
<path fill-rule="evenodd" clip-rule="evenodd" d="M17.5588 6.01074L13.3798 10.2663L5.11928 15.2533L12.4952 8.49028L17.5588 6.01074Z" fill="#E06834"/>
<path fill-rule="evenodd" clip-rule="evenodd" d="M77.3394 24.9347L78.3771 10.8585L78.9761 9.03365L78.4747 8.28839L72.0181 7.3899L70.8271 7.83567L66.265 6.70037L69.1207 6.65161L80 7.83567L77.3394 24.9347Z" fill="#6B2805"/>
<path fill-rule="evenodd" clip-rule="evenodd" d="M5.11918 15.2534L1.60187 19.7319L0.369048 22.3368L0.0277696 24.4193V20.512L2.90432 16.7439L5.26544 15.1628L5.11918 15.2534Z" fill="#982F34"/>
<path fill-rule="evenodd" clip-rule="evenodd" d="M62.267 31.6489L51.4713 31.0221L38.8437 31.3425L50.1479 31.6629L62.267 31.6489Z" fill="#B95C26"/>
<path fill-rule="evenodd" clip-rule="evenodd" d="M31.635 38.4537L23.7297 38.4886L28.1664 39.6378L31.635 38.4537Z" fill="#801B34"/>
<path fill-rule="evenodd" clip-rule="evenodd" d="M73.1116 40.78L69.8729 39.0458L46.6237 35.8976L73.1116 40.78Z" fill="#AD5322"/>
<path fill-rule="evenodd" clip-rule="evenodd" d="M76.413 30.8689L74.3583 30.1237L64.0779 31.5515L76.413 30.8689Z" fill="#BC5F27"/>
<path fill-rule="evenodd" clip-rule="evenodd" d="M74.3235 27.9296L71.5026 27.1844L69.4549 26.7804L71.8857 27.9296H74.3235Z" fill="#B35925"/>
<path fill-rule="evenodd" clip-rule="evenodd" d="M23.7298 34.6786L18.2066 33.0419H20.9717L23.7298 34.6786Z" fill="#801B34"/>
<path fill-rule="evenodd" clip-rule="evenodd" d="M23.7298 34.6786L20.5955 34.0866L18.2066 33.0419L20.9717 33.5642L23.7298 34.6786Z" fill="#B25929"/>
<path fill-rule="evenodd" clip-rule="evenodd" d="M79.1642 13.6166L75.7026 15.1628L78.7602 15.7897L79.1642 13.6166Z" fill="#964219"/>
<path fill-rule="evenodd" clip-rule="evenodd" d="M51.6176 7.57085L52.3071 10.2663L50.5589 7.68229L49.1241 6.91614L51.6176 7.57085Z" fill="#892334"/>
<path fill-rule="evenodd" clip-rule="evenodd" d="M52.3071 10.2663L49.1241 7.83552V6.91614L50.5589 7.68229L52.3071 10.2663Z" fill="#DC634F"/>
<path fill-rule="evenodd" clip-rule="evenodd" d="M31.635 33.1325L30.3256 31.4888L28.5913 29.3087L31.635 34.6787V33.1325Z" fill="#801B34"/>
<path fill-rule="evenodd" clip-rule="evenodd" d="M31.635 34.6787L29.8868 33.042L28.5913 29.3087L31.635 34.6787Z" fill="#DC634F"/>
<path fill-rule="evenodd" clip-rule="evenodd" d="M55.5389 23.3675L49.1242 19.7318L51.1719 21.5497L55.5389 23.3675Z" fill="#801B34"/>
<path fill-rule="evenodd" clip-rule="evenodd" d="M55.0444 23.1656L51.8057 22.1627L49.5699 20.1219L51.6942 21.6473L55.0444 23.1656Z" fill="#DC634F"/>
<path fill-rule="evenodd" clip-rule="evenodd" d="M46.0038 8.17688L42.6954 9.72311L35.5563 9.29826L46.0038 8.17688Z" fill="#E06834"/>
<defs>
<linearGradient id="paint0_linear_11_433" x1="40.0139" y1="40.78" x2="40.0139" y2="1.39294" gradientUnits="userSpaceOnUse">
<stop stop-color="#EE8F44"/>
<stop offset="1" stop-color="#A85222"/>
</linearGradient>
<linearGradient id="paint1_linear_11_433" x1="76.824" y1="19.1329" x2="49.1242" y2="19.1329" gradientUnits="userSpaceOnUse">
<stop stop-color="#C77CBD"/>
<stop offset="1" stop-color="#974577"/>
</linearGradient>
<linearGradient id="paint2_linear_11_433" x1="78.9761" y1="14.4037" x2="62.678" y2="14.4037" gradientUnits="userSpaceOnUse">
<stop stop-color="#C77CBD"/>
<stop offset="1" stop-color="#974577"/>
</linearGradient>
<linearGradient id="paint3_linear_11_433" x1="66.265" y1="23.9039" x2="43.8238" y2="23.9039" gradientUnits="userSpaceOnUse">
<stop stop-color="#C77CBD"/>
<stop offset="1" stop-color="#974577"/>
</linearGradient>
<linearGradient id="paint4_linear_11_433" x1="62.9775" y1="24.9347" x2="37.3115" y2="24.9347" gradientUnits="userSpaceOnUse">
<stop stop-color="#C77CBD"/>
<stop offset="1" stop-color="#974577"/>
</linearGradient>
<linearGradient id="paint5_linear_11_433" x1="40.0139" y1="18.7011" x2="23.7297" y2="18.7011" gradientUnits="userSpaceOnUse">
<stop stop-color="#C77CBD"/>
<stop offset="1" stop-color="#974577"/>
</linearGradient>
<linearGradient id="paint6_linear_11_433" x1="31.635" y1="23.3676" x2="8.50423" y2="23.3676" gradientUnits="userSpaceOnUse">
<stop stop-color="#CD6C2E"/>
<stop offset="1" stop-color="#964319"/>
</linearGradient>
<linearGradient id="paint7_linear_11_433" x1="23.7298" y1="27.9297" x2="1.25375" y2="27.9297" gradientUnits="userSpaceOnUse">
<stop stop-color="#C77CBD"/>
<stop offset="1" stop-color="#974577"/>
</linearGradient>
</defs>
</svg>
