<svg width="80" height="41" viewBox="0 0 80 41" fill="none" xmlns="http://www.w3.org/2000/svg">
<path fill-rule="evenodd" clip-rule="evenodd" d="M0 7.83557L3.58697 30.8688L17.7329 31.6489H5.64165L6.90232 40.78L48.3789 33.1185V38.4398L51.8614 39.6238C51.8614 39.6238 70.1724 36.0856 80 24.4053V20.4979C80 20.4979 66.3625 3.36404 49.2286 1.39294L48.3719 2.97399V9.75094L3.69841 4.87544L0 7.83557Z" fill="url(#paint0_linear_11_383)"/>
<path fill-rule="evenodd" clip-rule="evenodd" d="M3.69849 4.91039L7.90535 2.97412L48.372 7.8357V9.72321L3.69849 4.91039Z" fill="#FF8B3E"/>
<path fill-rule="evenodd" clip-rule="evenodd" d="M49.2286 1.393L51.4923 0C51.4923 0 70.0261 5.52324 79.4359 17.2523L79.9722 20.498C79.9722 20.498 65.8332 3.4825 49.2286 1.393Z" fill="#FF8B3E"/>
<path fill-rule="evenodd" clip-rule="evenodd" d="M0 7.83571L10.8793 6.65165L21.7656 6.85364L3.69841 4.9104L0 7.83571Z" fill="#6B2805"/>
<path fill-rule="evenodd" clip-rule="evenodd" d="M5.6416 31.6629L6.359 31.0221L17.7328 31.6489L5.6416 31.6629Z" fill="#FF8B3E"/>
<path style="mix-blend-mode:multiply" opacity="0.2" fill-rule="evenodd" clip-rule="evenodd" d="M3.17603 28.2431C3.17603 28.2431 10.8933 13.338 26.7317 7.38989L30.8758 7.83566C30.8758 7.83566 13.9718 15.2116 3.58696 30.8689L3.17603 28.2431Z" fill="url(#paint1_linear_11_383)"/>
<path style="mix-blend-mode:multiply" opacity="0.2" fill-rule="evenodd" clip-rule="evenodd" d="M2.22884 22.1627C2.22884 22.1627 7.59885 11.0605 17.3499 6.77003L10.9072 6.65161C10.9072 6.65161 3.84472 8.44162 1.05176 14.4037L2.22884 22.1627Z" fill="url(#paint2_linear_11_383)"/>
<path style="mix-blend-mode:multiply" opacity="0.2" fill-rule="evenodd" clip-rule="evenodd" d="M13.735 39.5194C13.735 39.5194 22.093 17.7956 35.0618 8.28833L36.1762 8.40674C36.1762 8.40674 19.9896 21.7238 14.5011 39.3731L13.735 39.5194Z" fill="url(#paint3_linear_11_383)"/>
<path style="mix-blend-mode:multiply" opacity="0.2" fill-rule="evenodd" clip-rule="evenodd" d="M17.0225 37.611C17.0225 37.611 21.4313 24.3079 30.3047 17.134C39.1781 9.96 49.8067 7.09737 36.1762 35.4031L35.3335 35.5007C35.3335 35.5007 46.6794 14.0484 39.4219 13.0942C32.1644 12.14 20.5955 27.3168 17.0225 37.611Z" fill="url(#paint4_linear_11_383)"/>
<path style="mix-blend-mode:multiply" opacity="0.2" fill-rule="evenodd" clip-rule="evenodd" d="M39.9861 34.6788C39.9861 34.6788 46.5332 14.5987 55.518 2.72339L56.2703 2.97412C56.2703 2.97412 45.2655 16.3818 41.1353 34.4629L39.9861 34.6788Z" fill="url(#paint5_linear_11_383)"/>
<path style="mix-blend-mode:multiply" opacity="0.2" fill-rule="evenodd" clip-rule="evenodd" d="M48.365 38.4537C48.365 38.4537 60.2055 21.7795 71.4958 12.2793L66.4531 8.28833C66.4531 8.28833 55.0444 18.2483 48.3441 33.1325L48.365 38.4537Z" fill="url(#paint6_linear_11_383)"/>
<path style="mix-blend-mode:multiply" opacity="0.2" fill-rule="evenodd" clip-rule="evenodd" d="M56.2701 38.4886C56.2701 38.4886 67.3515 21.6124 77.0607 17.3707L78.7462 19.1329C78.7462 19.1329 64.5933 25.0253 57.8512 37.9941L56.2701 38.4886Z" fill="url(#paint7_linear_11_383)"/>
<path opacity="0.4" fill-rule="evenodd" clip-rule="evenodd" d="M51.4087 27.1635C51.4087 27.1635 59.2165 16.5698 62.4412 12.2584C57.793 16.429 54.0397 21.4998 51.4087 27.1635Z" fill="#D9772F"/>
<path opacity="0.4" fill-rule="evenodd" clip-rule="evenodd" d="M7.37585 25.8123C7.37585 25.8123 14.1528 17.4891 29.4758 8.50427C29.4758 8.50427 19.6343 12.0425 7.37585 25.8123Z" fill="#D9772F"/>
<path opacity="0.4" fill-rule="evenodd" clip-rule="evenodd" d="M61.0063 33.0419C61.0063 33.0419 67.9713 24.7535 75.9393 20.5049C75.9393 20.5118 66.8012 24.9694 61.0063 33.0419Z" fill="#D9772F"/>
<path fill-rule="evenodd" clip-rule="evenodd" d="M48.3719 2.97399L53.6096 2.29144L49.2286 1.39294L48.3719 2.97399Z" fill="#E06834"/>
<path fill-rule="evenodd" clip-rule="evenodd" d="M62.4413 6.01074L66.6203 10.2663L74.8808 15.2533L67.5049 8.49028L62.4413 6.01074Z" fill="#E06834"/>
<path fill-rule="evenodd" clip-rule="evenodd" d="M2.66064 24.9347L1.62286 10.8585L1.02386 9.03365L1.52534 8.28839L7.98188 7.3899L9.17291 7.83567L13.735 6.70037L10.8793 6.65161L0 7.83567L2.66064 24.9347Z" fill="#6B2805"/>
<path fill-rule="evenodd" clip-rule="evenodd" d="M74.8809 15.2534L78.3982 19.7319L79.631 22.3368L79.9723 24.4193V20.512L77.0957 16.7439L74.7346 15.1628L74.8809 15.2534Z" fill="#982F34"/>
<path fill-rule="evenodd" clip-rule="evenodd" d="M17.7329 31.6489L28.5287 31.0221L41.1562 31.3425L29.852 31.6629L17.7329 31.6489Z" fill="#B95C26"/>
<path fill-rule="evenodd" clip-rule="evenodd" d="M48.365 38.4537L56.2703 38.4886L51.8336 39.6378L48.365 38.4537Z" fill="#801B34"/>
<path fill-rule="evenodd" clip-rule="evenodd" d="M6.88843 40.78L10.1271 39.0458L33.3763 35.8976L6.88843 40.78Z" fill="#AD5322"/>
<path fill-rule="evenodd" clip-rule="evenodd" d="M3.58704 30.8689L5.64172 30.1237L15.9221 31.5515L3.58704 30.8689Z" fill="#BC5F27"/>
<path fill-rule="evenodd" clip-rule="evenodd" d="M5.67651 27.9296L8.49735 27.1844L10.5451 26.7804L8.11426 27.9296H5.67651Z" fill="#B35925"/>
<path fill-rule="evenodd" clip-rule="evenodd" d="M56.2701 34.6786L61.7934 33.0419H59.0283L56.2701 34.6786Z" fill="#801B34"/>
<path fill-rule="evenodd" clip-rule="evenodd" d="M56.2701 34.6786L59.4044 34.0866L61.7934 33.0419L59.0283 33.5642L56.2701 34.6786Z" fill="#B25929"/>
<path fill-rule="evenodd" clip-rule="evenodd" d="M0.835815 13.6166L4.29742 15.1628L1.23978 15.7897L0.835815 13.6166Z" fill="#964219"/>
<path fill-rule="evenodd" clip-rule="evenodd" d="M28.3824 7.57085L27.6929 10.2663L29.4411 7.68229L30.8759 6.91614L28.3824 7.57085Z" fill="#892334"/>
<path fill-rule="evenodd" clip-rule="evenodd" d="M27.6929 10.2663L30.8759 7.83552V6.91614L29.4411 7.68229L27.6929 10.2663Z" fill="#DC634F"/>
<path fill-rule="evenodd" clip-rule="evenodd" d="M48.365 33.1325L49.6744 31.4888L51.4087 29.3087L48.365 34.6787V33.1325Z" fill="#801B34"/>
<path fill-rule="evenodd" clip-rule="evenodd" d="M48.365 34.6787L50.1132 33.042L51.4087 29.3087L48.365 34.6787Z" fill="#DC634F"/>
<path fill-rule="evenodd" clip-rule="evenodd" d="M24.4611 23.3675L30.8758 19.7318L28.8281 21.5497L24.4611 23.3675Z" fill="#801B34"/>
<path fill-rule="evenodd" clip-rule="evenodd" d="M24.9557 23.1656L28.1944 22.1627L30.4302 20.1219L28.3059 21.6473L24.9557 23.1656Z" fill="#DC634F"/>
<path fill-rule="evenodd" clip-rule="evenodd" d="M33.9962 8.17688L37.3046 9.72311L44.4437 9.29826L33.9962 8.17688Z" fill="#E06834"/>
<defs>
<linearGradient id="paint0_linear_11_383" x1="39.9861" y1="40.78" x2="39.9861" y2="1.39294" gradientUnits="userSpaceOnUse">
<stop stop-color="#EE8F44"/>
<stop offset="1" stop-color="#A85222"/>
</linearGradient>
<linearGradient id="paint1_linear_11_383" x1="3.17603" y1="19.1329" x2="30.8758" y2="19.1329" gradientUnits="userSpaceOnUse">
<stop stop-color="#C77CBD"/>
<stop offset="1" stop-color="#974577"/>
</linearGradient>
<linearGradient id="paint2_linear_11_383" x1="1.0239" y1="14.4037" x2="17.322" y2="14.4037" gradientUnits="userSpaceOnUse">
<stop stop-color="#C77CBD"/>
<stop offset="1" stop-color="#974577"/>
</linearGradient>
<linearGradient id="paint3_linear_11_383" x1="13.735" y1="23.9039" x2="36.1762" y2="23.9039" gradientUnits="userSpaceOnUse">
<stop stop-color="#C77CBD"/>
<stop offset="1" stop-color="#974577"/>
</linearGradient>
<linearGradient id="paint4_linear_11_383" x1="17.0225" y1="24.9347" x2="42.6885" y2="24.9347" gradientUnits="userSpaceOnUse">
<stop stop-color="#C77CBD"/>
<stop offset="1" stop-color="#974577"/>
</linearGradient>
<linearGradient id="paint5_linear_11_383" x1="39.9861" y1="18.7011" x2="56.2703" y2="18.7011" gradientUnits="userSpaceOnUse">
<stop stop-color="#C77CBD"/>
<stop offset="1" stop-color="#974577"/>
</linearGradient>
<linearGradient id="paint6_linear_11_383" x1="48.365" y1="23.3676" x2="71.4958" y2="23.3676" gradientUnits="userSpaceOnUse">
<stop stop-color="#CD6C2E"/>
<stop offset="1" stop-color="#964319"/>
</linearGradient>
<linearGradient id="paint7_linear_11_383" x1="56.2701" y1="27.9297" x2="78.7462" y2="27.9297" gradientUnits="userSpaceOnUse">
<stop stop-color="#C77CBD"/>
<stop offset="1" stop-color="#974577"/>
</linearGradient>
</defs>
</svg>
