<svg width="54" height="54" fill="none" xmlns="http://www.w3.org/2000/svg"><path fill-rule="evenodd" clip-rule="evenodd" d="M26.635.178a27.282 27.282 0 0127.282 22.644 9.658 9.658 0 00-5.456.764c1.826-.02 3.651.107 5.456.382a20.9 20.9 0 010 3.71 26.955 26.955 0 01-53.855.764s3.22-.818 3.82-1.037a8.076 8.076 0 01-3.874-.654 27.773 27.773 0 013.546-14.242 27.88 27.88 0 014.31-1.528c-3 .328-3.655.437-3.491 0A24.5 24.5 0 0126.635.068v.11z" fill="url(#paint0_linear_110_8165)"/><path fill-rule="evenodd" clip-rule="evenodd" d="M26.635.45a26.137 26.137 0 0126.246 22.154 11.896 11.896 0 00-5.457 1.2 45.064 45.064 0 015.839 0v2.674a26.19 26.19 0 01-52.11 1.746l5.075-1.527a11.731 11.731 0 01-5.457-.382v-.328a26.245 26.245 0 013.11-13.532l6.003-1.91-4.966.6A24.008 24.008 0 0126.744.234l-.109.218z" fill="url(#paint1_radial_110_8165)"/><path style="mix-blend-mode:multiply" opacity=".6" fill-rule="evenodd" clip-rule="evenodd" d="M1.044 21.731a54.563 54.563 0 006.493-2.019 59.21 59.21 0 0110.531-2.946 177.069 177.069 0 0128.047-5.457h2.346c-.37-.532-.77-1.042-1.2-1.528a46.707 46.707 0 00-7.312 0c-9.822.873-21.335 3.438-31.866 5.13l-5.456.982a24.884 24.884 0 00-1.365 5.456l-.218.382z" fill="url(#paint2_radial_110_8165)"/><path style="mix-blend-mode:multiply" opacity=".6" fill-rule="evenodd" clip-rule="evenodd" d="M17.032 30.517a87.74 87.74 0 00-9.55 4.038 14.709 14.709 0 00-3.928 2.728 27.281 27.281 0 003.329 5.074l2.51 1.146c2.51 1.091 5.129 2.128 7.475 3.329a52.917 52.917 0 016.984 4.365c.927.054 1.856.054 2.783 0 1.48.003 2.957-.106 4.42-.328l-5.13-3.82a93.684 93.684 0 01-8.512-6.547 3.928 3.928 0 01-.763-1.31 3.547 3.547 0 010-1.473 3.22 3.22 0 01.382-1.364c.084-.43.212-.85.381-1.255a32.247 32.247 0 018.077-4.8 120.012 120.012 0 0113.75-5.13 28.316 28.316 0 017.749-1.364 11.895 11.895 0 015.456-1.2c0-.982-.327-1.964-.546-2.892a25.154 25.154 0 00-7.038 0 196.424 196.424 0 00-28.265 10.913l.437-.11z" fill="url(#paint3_radial_110_8165)"/><path d="M51.407 35.154h-.6a10.915 10.915 0 00-1.91 0 3.15 3.15 0 00-1.2.436 6.656 6.656 0 00-1.037.655 7.476 7.476 0 00-.982.873c-.288.3-.544.63-.764.982a6.767 6.767 0 00-.545 1.091 5.463 5.463 0 000 1.31 3.222 3.222 0 000 1.2c.152.38.396.718.709.983.25.23.524.431.818.6l.764-.819a5.456 5.456 0 01-1.255-.71 2.019 2.019 0 01-.545-1.363c.04-.6.227-1.181.545-1.692a5.457 5.457 0 014.693-2.455c.233-.056.476-.056.71 0 .204-.427.386-.864.545-1.31l.054.219zm1.583-6.548h-.437a32.194 32.194 0 00-18.06 5.456c-2.074 1.419-3.056 2.674-3.22 3.929a4.42 4.42 0 001.2 3.874 48.404 48.404 0 006.767 6.875l-1.856.873a53.853 53.853 0 01-6.602-6.602 6.493 6.493 0 01-2.455-5.184c.436-3 6.656-6.165 9.985-7.53a36.12 36.12 0 0114.569-3.055v1.418l.109-.054zm0-3.656a50.526 50.526 0 00-26.682 6.275 24.063 24.063 0 00-7.094 4.638 2.782 2.782 0 000 4.092 66.73 66.73 0 007.694 6.275c2.292 1.637 4.038 3.165 5.784 4.475l-1.583.327-5.129-3.82a93.681 93.681 0 01-8.566-6.711 3.927 3.927 0 01-.764-1.31 3.544 3.544 0 010-1.473 3.22 3.22 0 01.382-1.364c.084-.43.212-.85.382-1.255a32.245 32.245 0 018.075-4.802 120.018 120.018 0 0113.75-5.129 30.174 30.174 0 0113.587-1.091c-.027.29-.027.583 0 .873h.164zm-.764-5.456a25.154 25.154 0 00-7.039 0 196.44 196.44 0 00-28.264 10.913 87.734 87.734 0 00-9.55 4.037 13.858 13.858 0 00-3.928 2.728c0-.654-.6-1.255-.818-1.91a69.352 69.352 0 0113.259-6.11c3.547-1.365 7.093-2.838 10.913-4.257a76.398 76.398 0 0118.606-6.056 48.363 48.363 0 016.876 0v.71l-.055-.055zM6.774 42.138l2.51 1.146c2.51 1.091 5.129 2.128 7.475 3.328a52.925 52.925 0 016.984 4.365 23.405 23.405 0 01-4.42-.818l-4.092-2.128c-1.364-.71-2.783-1.31-4.256-1.964a26.027 26.027 0 01-4.201-3.93zM50.97 16a41.848 41.848 0 00-8.894.71 104.774 104.774 0 00-16.97 5.456c-7.857 2.783-15.878 5.457-23.9 7.857a10.914 10.914 0 010-1.309c8.24-2.4 16.37-5.13 24.391-8.021a90.9 90.9 0 0116.37-4.856 44.256 44.256 0 018.675-.491l.328.654zM1.043 21.73a54.563 54.563 0 006.493-2.02 59.2 59.2 0 0110.532-2.946 177.067 177.067 0 0128.046-5.456h2.346l.71.982a28.52 28.52 0 00-3.056 0A72.843 72.843 0 0028.326 16c-3.438.928-6.712 1.801-10.204 2.456A57.888 57.888 0 007.7 21.348a51.3 51.3 0 01-6.93 2.073 7.803 7.803 0 010-1.582l.273-.11zm2.074-7.367l4.856-.927C18.504 11.8 29.8 9.945 39.894 9.072a62.366 62.366 0 016.384 0c.356.337.684.702.983 1.091a46.705 46.705 0 00-7.312 0c-9.822.873-21.335 3.438-31.866 5.13l-5.456.981c0-.6.436-1.146.709-1.746l-.218-.164zm2.728-4.528c2.728-.382 5.456-.655 8.13-.764 2.674-.11 6.712-.328 10.095-.764l6.274-.873c4.28-.695 8.6-1.114 12.932-1.255l.928.71c-10.04 0-18.607 3.273-30.174 3.437-2.838 0-6.112.49-9.167.873.292-.48.62-.936.982-1.364zM8.738 6.67a151.47 151.47 0 0019.589-1.583c3.82-.545 7.639-1.036 11.404-1.255.6.314 1.183.66 1.746 1.037-4.365.136-8.72.518-13.041 1.146A140.339 140.339 0 017.1 7.98a12.93 12.93 0 011.528-1.473l.109.164zm4.747-3.383c3.765 0 7.64-.6 11.677-1.2a146.59 146.59 0 016.82-.983l2.62.71c-6.985.709-13.914 2.018-20.899 2.619h-2.4l2.182-1.31v.164zm29.028 43.106a12.77 12.77 0 01-3.273-2.728 5.457 5.457 0 01-1.637-4.31v-.437a10.366 10.366 0 013.655-4.038 16.86 16.86 0 0110.913-3.22v.655a15.28 15.28 0 00-4.747.491 17.735 17.735 0 00-5.456 2.892c-2.838 2.128-4.53 4.093-1.91 7.312a12.82 12.82 0 003.11 2.728l-.818.655h.163z" fill="#B7805C" opacity=".5"/><path style="mix-blend-mode:screen" opacity=".35" fill-rule="evenodd" clip-rule="evenodd" d="M17.414 2.797a.437.437 0 010-.436c0-.491 1.636-1.037 3-1.473a25.755 25.755 0 00-6.984 2.4l4.747-.327h-.654l-.11-.164zm-1.255 1.365h-5.02a24.28 24.28 0 00-2.62 2.073h7.04a7.42 7.42 0 01-1.583 0c-2.565 0 0-1.528 1.091-1.8l1.092-.328v.055zm-1.801 3.71H7.046a20.66 20.66 0 00-1.364 1.691c2.728-.381 5.457-.654 8.13-.763h.71-1.037c-.71 0 0-.71.273-.874h.6v-.054zM9.665 10.6l-5.893 2.128-.818 1.637 4.856-.928h.6c-.927 0-1.91-.709-.982-1.418a12.604 12.604 0 016.22-1.637c-1.254 0-2.618 0-3.983.273V10.6zm-2.128 4.584l-5.456.927a24.88 24.88 0 00-1.364 5.457 54.563 54.563 0 006.493-2.02l.873-.327c-1.746.382-3.929.655-4.42 0-.49-.654 0-3.164 1.364-3.6a19.61 19.61 0 012.347-.765l.163.328zM6.501 21.73a55 55 0 01-5.457 1.583 17.67 17.67 0 000 2.946v.328c1.763.555 3.633.686 5.457.382l1.855-.546c-2.128 0-5.457.436-5.893-.819-.437-1.255 2.073-2.728 4.474-3.874h-.436zm0 6.439l-5.457 1.637a23.298 23.298 0 001.528 5.456 31.32 31.32 0 015.456-2.837 9.06 9.06 0 01-2.619.328 1.857 1.857 0 01-1.146-3.11A7.365 7.365 0 016.72 28.06l-.218.109zm.818 6.384a14.76 14.76 0 00-3.929 2.728 27.282 27.282 0 003.329 5.075l2.51 1.146 4.42 1.91a37.002 37.002 0 01-4.857-3.056c-1.418-1.364-3.328-4.529-2.291-6.493.419-.64.934-1.21 1.527-1.692l-.709.382z" fill="url(#paint4_radial_110_8165)"/><path style="mix-blend-mode:screen" fill-rule="evenodd" clip-rule="evenodd" d="M3.118 37.828c5.456 9.985 12.222 13.26 23.953 14.405A21.007 21.007 0 013.118 37.828z" fill="url(#paint5_radial_110_8165)"/><path style="mix-blend-mode:screen" fill-rule="evenodd" clip-rule="evenodd" d="M5.573 11.146a24.063 24.063 0 0121.062-9.768c1.836.072 3.663.31 5.456.71l2.183 1.091a24.61 24.61 0 013.874.928 25.1 25.1 0 0110.913 9.767v.49c0 .164 0 0-.382 0h-.164a28.73 28.73 0 00-3.055 0 23.03 23.03 0 00-4.747.546 111.196 111.196 0 00-14.405 5.457 82.667 82.667 0 0115.66-4.529 40.108 40.108 0 018.184-.71 24.828 24.828 0 012.51 7.421A26.137 26.137 0 0026.417.396 24.009 24.009 0 004.59 11.31l.982-.163z" fill="url(#paint6_radial_110_8165)"/><path fill-rule="evenodd" clip-rule="evenodd" d="M45.787 37.828a22.153 22.153 0 01-18.77 10.258A22.373 22.373 0 017.974 37.828a21.825 21.825 0 0037.813 0z" fill="#CA9E67" opacity=".65"/><path opacity=".75" fill-rule="evenodd" clip-rule="evenodd" d="M49.17 23.095a22.644 22.644 0 00-22.208-19.48A21.826 21.826 0 004.645 25.879c-.028.4-.028.8 0 1.2H6.01l-1.365.437a22.317 22.317 0 0044.58-1.528v-2.073a12.44 12.44 0 00-2.02 0c.632-.299 1.29-.537 1.965-.71v-.109z" fill="url(#paint7_linear_110_8165)"/><path fill-rule="evenodd" clip-rule="evenodd" d="M4.646 26.532A21.826 21.826 0 0126.962 4.707 22.699 22.699 0 0148.788 23.04 22.644 22.644 0 0026.581 3.56 21.826 21.826 0 004.264 25.824v.655l.382.054z" fill="#683C11" opacity=".5"/><path d="M40 27c0-7.182-5.823-13-13-13-7.182 0-13 5.818-13 13 0 6.487 4.752 11.866 10.969 12.84v-9.081h-3.301V27h3.3v-2.866c0-3.257 1.939-5.056 4.91-5.056 1.422 0 2.911.253 2.911.253v3.2h-1.642c-1.612 0-2.116 1.003-2.116 2.03V27h3.605l-.579 3.758h-3.026v9.081C35.243 38.865 40 33.486 40 27z" fill="#FFD7B7"/><defs><radialGradient id="paint1_radial_110_8165" cx="0" cy="0" r="1" gradientUnits="userSpaceOnUse" gradientTransform="translate(11.248 3.18) scale(55.5469)"><stop stop-color="#F59547"/><stop offset="1" stop-color="#A14C1F"/></radialGradient><radialGradient id="paint2_radial_110_8165" cx="0" cy="0" r="1" gradientUnits="userSpaceOnUse" gradientTransform="translate(14.522 23.914) scale(56.5836)"><stop stop-color="#CFA04D"/><stop offset="1" stop-color="#fff"/></radialGradient><radialGradient id="paint3_radial_110_8165" cx="0" cy="0" r="1" gradientUnits="userSpaceOnUse" gradientTransform="translate(23.416 52.725) scale(69.7337)"><stop stop-color="#CFA04D"/><stop offset="1" stop-color="#fff"/></radialGradient><radialGradient id="paint4_radial_110_8165" cx="0" cy="0" r="1" gradientUnits="userSpaceOnUse" gradientTransform="translate(40.33 33.627) scale(48.2898)"><stop offset=".35"/><stop offset="1" stop-color="#00B875"/></radialGradient><radialGradient id="paint5_radial_110_8165" cx="0" cy="0" r="1" gradientUnits="userSpaceOnUse" gradientTransform="translate(10.593 50.214) scale(20.9528)"><stop stop-color="#B0670B"/><stop offset="1"/></radialGradient><radialGradient id="paint6_radial_110_8165" cx="0" cy="0" r="1" gradientUnits="userSpaceOnUse" gradientTransform="translate(11.575 4.489) scale(41.1418)"><stop stop-color="#A48A7B"/><stop offset="1" stop-color="#945534"/></radialGradient><linearGradient id="paint0_linear_110_8165" x1="26.962" y1="53.487" x2="26.962" y2=".123" gradientUnits="userSpaceOnUse"><stop stop-color="#692705"/><stop offset="1" stop-color="#823B00"/></linearGradient><linearGradient id="paint7_linear_110_8165" x1="26.962" y1="47.977" x2="26.962" y2="3.561" gradientUnits="userSpaceOnUse"><stop stop-color="#823B00"/><stop offset="1" stop-color="#692705"/></linearGradient></defs></svg>